<svg xmlns="http://www.w3.org/2000/svg" xmlns:xlink="http://www.w3.org/1999/xlink" viewBox="0 0 1507.24 1055.12"><defs><style>.cls-1{fill:none;}.cls-2{clip-path:url(#clip-path);}.cls-3{fill:#999;}.cls-4,.cls-5{fill:#121212;}.cls-4{fill-rule:evenodd;}</style><clipPath id="clip-path" transform="translate(0 -0.01)"><rect class="cls-1" width="1507.4" height="1055.18"/></clipPath></defs><g id="Layer_2" data-name="Layer 2"><g id="Calque_1" data-name="Calque 1"><g class="cls-2"><rect class="cls-3" width="1507.24" height="1055.12"/><g class="cls-2"><path class="cls-4" d="M398.41,125.33c-13.17,0-72.3,59.55-72.27,72.74,0-13.19-59.56-72.32-72.73-72.29,13.17,0,72.3-59.54,72.27-72.72,0,13.18,59.56,72.31,72.73,72.27" transform="translate(0 -0.01)"/><path class="cls-5" d="M506.71,80.39c-19.16-36.18-69.06-22.73-69.43,12.94-.4,40,51,60.88,68.06,98.25l.27.52.28-.54c17.8-37,69.6-56.89,70-96.85.35-35.68-49.28-50.09-69.19-14.32" transform="translate(0 -0.01)"/><path class="cls-5" d="M734.22,132.12c0-34.57-44.61-52.24-59.66-84.38l-.23-.46-.23.44C659,79.88,614.39,97.51,614.37,132.06c0,28.92,38.22,40.09,56.86,15.9.41-1.21,0,7.68-1.28,12.72-4.48,14.83-20.57,36.44-28.39,43.14,10.82-9.29,54.63-9.28,65.45,0-7.81-6.72-23.12-27.57-28.36-43.17a73.23,73.23,0,0,1-2-13c18.18,26.24,57.56,14,57.57-15.51" transform="translate(0 -0.01)"/><path class="cls-4" d="M194.25,100.29a30.09,30.09,0,0,0-27.38,16.76c-3.87,4.5-9.8,6.4-15.79,7.61,1.45-7.25,3.23-15.21,9-19.88a30.16,30.16,0,1,0-26-.36c4.85,3.66,6.92,12.49,8.36,20.12-5.92-1.36-11.79-3.42-15.53-8a30.12,30.12,0,1,0-27.72,42.77c12,.15,23.51-7.83,28.51-17.88,4.25-4.59,9.65-5.64,15.86-6.71.49,8.54.06,17.75-1.3,23.11-6.33,17.43-22,38.11-30.33,45.09,11.31-9.43,56.61-8.86,67.66.9-8.14-7.19-24.33-29.42-29.11-45.88-1.48-6.59-1.13-18.86-1-23.2,6.3,1.27,11.76,2.43,15.94,7.19,4.73,10.19,16.05,18.47,28,18.62a30.13,30.13,0,0,0,.8-60.26" transform="translate(0 -0.01)"/><path class="cls-4" d="M1101.86,125.33c-13.17,0-72.29,59.55-72.26,72.74,0-13.19-59.56-72.32-72.73-72.29,13.17,0,72.3-59.54,72.27-72.72,0,13.18,59.55,72.31,72.72,72.27" transform="translate(0 -0.01)"/><path class="cls-5" d="M1210.17,80.39c-19.16-36.18-69.07-22.73-69.44,12.94-.39,40,51,60.88,68.06,98.25l.28.52.26-.54c17.81-37,69.61-56.89,70-96.85.35-35.68-49.29-50.09-69.19-14.32" transform="translate(0 -0.01)"/><path class="cls-5" d="M1437.68,132.12c0-34.57-44.61-52.24-59.67-84.38l-.22-.46-.23.44c-15.08,32.16-59.72,49.79-59.73,84.34,0,28.92,38.21,40.09,56.86,15.9.4-1.21,0,7.68-1.29,12.72-4.48,14.83-20.56,36.44-28.39,43.14,10.83-9.29,54.64-9.28,65.46,0-7.82-6.72-23.13-27.57-28.37-43.17a73.23,73.23,0,0,1-2-13c18.18,26.24,57.56,14,57.58-15.51" transform="translate(0 -0.01)"/><path class="cls-4" d="M897.7,100.29a30.07,30.07,0,0,0-27.37,16.76c-3.88,4.5-9.81,6.4-15.8,7.61,1.46-7.25,3.24-15.21,9-19.88a30.17,30.17,0,1,0-26-.36c4.85,3.66,6.9,12.49,8.36,20.12-5.93-1.36-11.79-3.42-15.53-8a30.13,30.13,0,1,0-27.72,42.77c12,.15,23.51-7.83,28.51-17.88,4.24-4.59,9.64-5.64,15.85-6.71.5,8.54.06,17.75-1.29,23.11-6.34,17.43-22,38.11-30.33,45.09,11.29-9.43,56.62-8.86,67.65.9-8.14-7.19-24.32-29.42-29.11-45.88-1.48-6.59-1.13-18.86-1-23.2,6.31,1.27,11.76,2.43,15.94,7.19,4.74,10.19,16.06,18.47,28,18.62a30.13,30.13,0,1,0,.79-60.26" transform="translate(0 -0.01)"/><path class="cls-4" d="M398.41,326.32c-13.17,0-72.3,59.55-72.27,72.74,0-13.19-59.56-72.32-72.73-72.29,13.17,0,72.3-59.54,72.27-72.72,0,13.18,59.56,72.3,72.73,72.27" transform="translate(0 -0.01)"/><path class="cls-5" d="M506.71,281.38c-19.16-36.18-69.06-22.73-69.43,12.94-.4,40,51,60.88,68.06,98.25l.27.52.28-.55c17.8-37,69.6-56.88,70-96.84.35-35.68-49.28-50.09-69.19-14.32" transform="translate(0 -0.01)"/><path class="cls-5" d="M734.22,333.11c0-34.58-44.61-52.24-59.66-84.38l-.23-.46-.23.44c-15.07,32.16-59.71,49.79-59.73,84.34,0,28.92,38.22,40.08,56.86,15.9.41-1.22,0,7.68-1.28,12.72-4.48,14.83-20.57,36.44-28.39,43.14,10.82-9.29,54.63-9.28,65.45,0-7.81-6.72-23.12-27.57-28.36-43.17a73.23,73.23,0,0,1-2-13c18.18,26.23,57.56,14,57.57-15.51" transform="translate(0 -0.01)"/><path class="cls-4" d="M194.25,301.28A30.09,30.09,0,0,0,166.87,318c-3.87,4.5-9.8,6.4-15.79,7.61,1.45-7.26,3.23-15.22,9-19.89a30.15,30.15,0,1,0-26-.35c4.85,3.66,6.92,12.49,8.36,20.12-5.92-1.37-11.79-3.42-15.53-8A30.13,30.13,0,1,0,99.15,360.3c12,.15,23.51-7.83,28.51-17.88,4.25-4.59,9.65-5.64,15.86-6.72.49,8.55.06,17.76-1.3,23.12-6.33,17.43-22,38.11-30.33,45.09,11.31-9.44,56.61-8.86,67.66.9-8.14-7.19-24.33-29.43-29.11-45.89-1.48-6.58-1.13-18.85-1-23.19,6.3,1.27,11.76,2.43,15.94,7.19,4.73,10.19,16.05,18.47,28,18.62a30.13,30.13,0,0,0,.8-60.26" transform="translate(0 -0.01)"/><path class="cls-4" d="M1101.86,326.32c-13.17,0-72.29,59.55-72.26,72.74,0-13.19-59.56-72.32-72.73-72.29,13.17,0,72.3-59.54,72.27-72.72,0,13.18,59.55,72.3,72.72,72.27" transform="translate(0 -0.01)"/><path class="cls-5" d="M1210.17,281.38c-19.16-36.18-69.07-22.73-69.44,12.94-.39,40,51,60.88,68.06,98.25l.28.52.26-.55c17.81-37,69.61-56.88,70-96.84.35-35.68-49.29-50.09-69.19-14.32" transform="translate(0 -0.01)"/><path class="cls-5" d="M1437.68,333.11c0-34.58-44.61-52.24-59.67-84.38l-.22-.46-.23.44c-15.08,32.16-59.72,49.79-59.73,84.34,0,28.92,38.21,40.08,56.86,15.9.4-1.22,0,7.68-1.29,12.72-4.48,14.83-20.56,36.44-28.39,43.14,10.83-9.29,54.64-9.28,65.46,0-7.82-6.72-23.13-27.57-28.37-43.17a73.23,73.23,0,0,1-2-13c18.18,26.23,57.56,14,57.58-15.51" transform="translate(0 -0.01)"/><path class="cls-4" d="M897.7,301.28A30.07,30.07,0,0,0,870.33,318c-3.88,4.5-9.81,6.4-15.8,7.61,1.46-7.26,3.24-15.22,9-19.89a30.16,30.16,0,1,0-26-.35c4.85,3.66,6.9,12.49,8.36,20.12-5.93-1.37-11.79-3.42-15.53-8a30.13,30.13,0,1,0-27.72,42.78c12,.15,23.51-7.83,28.51-17.88,4.24-4.59,9.64-5.64,15.85-6.72.5,8.55.06,17.76-1.29,23.12-6.34,17.43-22,38.11-30.33,45.09,11.29-9.44,56.62-8.86,67.65.9-8.14-7.19-24.32-29.43-29.11-45.89-1.48-6.58-1.13-18.85-1-23.19,6.31,1.27,11.76,2.43,15.94,7.19,4.74,10.19,16.06,18.47,28,18.62a30.13,30.13,0,1,0,.79-60.26" transform="translate(0 -0.01)"/><path class="cls-4" d="M398.41,527.31c-13.17,0-72.3,59.55-72.27,72.73,0-13.18-59.56-72.32-72.73-72.28,13.17,0,72.3-59.54,72.27-72.72,0,13.18,59.56,72.3,72.73,72.27" transform="translate(0 -0.01)"/><path class="cls-5" d="M506.71,482.36c-19.16-36.17-69.06-22.72-69.43,12.94-.4,40,51,60.88,68.06,98.26l.27.51.28-.53c17.8-37,69.6-56.89,70-96.85.35-35.69-49.28-50.1-69.19-14.33" transform="translate(0 -0.01)"/><path class="cls-5" d="M734.22,534.09c0-34.56-44.61-52.23-59.66-84.38l-.23-.45-.23.44C659,481.86,614.39,499.48,614.37,534c0,28.91,38.22,40.08,56.86,15.9.41-1.22,0,7.67-1.28,12.71-4.48,14.84-20.57,36.44-28.39,43.14,10.82-9.28,54.63-9.28,65.45,0-7.81-6.72-23.12-27.56-28.36-43.17a73.23,73.23,0,0,1-2-13c18.18,26.24,57.56,14,57.57-15.51" transform="translate(0 -0.01)"/><path class="cls-4" d="M194.25,502.26A30.11,30.11,0,0,0,166.87,519c-3.87,4.49-9.8,6.39-15.79,7.61,1.45-7.26,3.23-15.22,9-19.89a30.16,30.16,0,1,0-26-.36c4.85,3.66,6.92,12.5,8.36,20.13-5.92-1.36-11.79-3.43-15.53-8a30.12,30.12,0,1,0-27.72,42.77c12,.16,23.51-7.82,28.51-17.88,4.25-4.59,9.65-5.63,15.86-6.7.49,8.53.06,17.75-1.3,23.1-6.33,17.43-22,38.12-30.33,45.1,11.31-9.44,56.61-8.87,67.66.9-8.14-7.2-24.33-29.43-29.11-45.88-1.48-6.59-1.13-18.86-1-23.2,6.3,1.26,11.76,2.42,15.94,7.18,4.73,10.2,16.05,18.47,28,18.63a30.14,30.14,0,0,0,.8-60.27" transform="translate(0 -0.01)"/><path class="cls-4" d="M1101.86,527.31c-13.17,0-72.29,59.55-72.26,72.73,0-13.18-59.56-72.32-72.73-72.28,13.17,0,72.3-59.54,72.27-72.72,0,13.18,59.55,72.3,72.72,72.27" transform="translate(0 -0.01)"/><path class="cls-5" d="M1210.17,482.36c-19.16-36.17-69.07-22.72-69.44,12.94-.39,40,51,60.88,68.06,98.26l.28.51.26-.53c17.81-37,69.61-56.89,70-96.85.35-35.69-49.29-50.1-69.19-14.33" transform="translate(0 -0.01)"/><path class="cls-5" d="M1437.68,534.09c0-34.56-44.61-52.23-59.67-84.38l-.22-.45-.23.44c-15.08,32.16-59.72,49.78-59.73,84.34,0,28.91,38.21,40.08,56.86,15.9.4-1.22,0,7.67-1.29,12.71-4.48,14.84-20.56,36.44-28.39,43.14,10.83-9.28,54.64-9.28,65.46,0-7.82-6.72-23.13-27.56-28.37-43.17a73.23,73.23,0,0,1-2-13c18.18,26.24,57.56,14,57.58-15.51" transform="translate(0 -0.01)"/><path class="cls-4" d="M897.7,502.26A30.1,30.1,0,0,0,870.33,519c-3.88,4.49-9.81,6.39-15.8,7.61,1.46-7.26,3.24-15.22,9-19.89a30.17,30.17,0,1,0-26-.36c4.85,3.66,6.9,12.5,8.36,20.13-5.93-1.36-11.79-3.43-15.53-8a30.13,30.13,0,1,0-27.72,42.77c12,.16,23.51-7.82,28.51-17.88,4.24-4.59,9.64-5.63,15.85-6.7.5,8.53.06,17.75-1.29,23.1-6.34,17.43-22,38.12-30.33,45.1,11.29-9.44,56.62-8.87,67.65.9-8.14-7.2-24.32-29.43-29.11-45.88-1.48-6.59-1.13-18.86-1-23.2,6.31,1.26,11.76,2.42,15.94,7.18,4.74,10.2,16.06,18.47,28,18.63a30.14,30.14,0,1,0,.79-60.27" transform="translate(0 -0.01)"/><path class="cls-4" d="M398.41,728.29c-13.17,0-72.3,59.55-72.27,72.73,0-13.18-59.56-72.31-72.73-72.27,13.17,0,72.3-59.55,72.27-72.72,0,13.17,59.56,72.3,72.73,72.26" transform="translate(0 -0.01)"/><path class="cls-5" d="M506.71,683.35c-19.16-36.18-69.06-22.73-69.43,12.94-.4,40,51,60.88,68.06,98.26l.27.51.28-.54c17.8-37,69.6-56.88,70-96.85.35-35.67-49.28-50.09-69.19-14.32" transform="translate(0 -0.01)"/><path class="cls-5" d="M734.22,735.08c0-34.57-44.61-52.24-59.66-84.38l-.23-.46-.23.45C659,682.84,614.39,700.47,614.37,735c0,28.92,38.22,40.09,56.86,15.9.41-1.22,0,7.68-1.28,12.72-4.48,14.83-20.57,36.45-28.39,43.15,10.82-9.3,54.63-9.28,65.45,0-7.81-6.72-23.12-27.58-28.36-43.18a73.23,73.23,0,0,1-2-13c18.18,26.23,57.56,14,57.57-15.51" transform="translate(0 -0.01)"/><path class="cls-4" d="M194.25,703.25A30.1,30.1,0,0,0,166.87,720c-3.87,4.5-9.8,6.39-15.79,7.62,1.45-7.26,3.23-15.23,9-19.89a30.16,30.16,0,1,0-26-.36c4.85,3.66,6.92,12.49,8.36,20.12-5.92-1.36-11.79-3.42-15.53-8a30.12,30.12,0,1,0-27.72,42.77c12,.16,23.51-7.81,28.51-17.86,4.25-4.6,9.65-5.65,15.86-6.72.49,8.54.06,17.75-1.3,23.11-6.33,17.44-22,38.11-30.33,45.09,11.31-9.43,56.61-8.86,67.66.9-8.14-7.19-24.33-29.42-29.11-45.88-1.48-6.59-1.13-18.85-1-23.2,6.3,1.27,11.76,2.42,15.94,7.18,4.73,10.2,16.05,18.48,28,18.63a30.13,30.13,0,1,0,.8-60.26" transform="translate(0 -0.01)"/><path class="cls-4" d="M1101.86,728.29c-13.17,0-72.29,59.55-72.26,72.73,0-13.18-59.56-72.31-72.73-72.27,13.17,0,72.3-59.55,72.27-72.72,0,13.17,59.55,72.3,72.72,72.26" transform="translate(0 -0.01)"/><path class="cls-5" d="M1210.17,683.35c-19.16-36.18-69.07-22.73-69.44,12.94-.39,40,51,60.88,68.06,98.26l.28.51.26-.54c17.81-37,69.61-56.88,70-96.85.35-35.67-49.29-50.09-69.19-14.32" transform="translate(0 -0.01)"/><path class="cls-5" d="M1437.68,735.08c0-34.57-44.61-52.24-59.67-84.38l-.22-.46-.23.45c-15.08,32.15-59.72,49.78-59.73,84.33,0,28.92,38.21,40.09,56.86,15.9.4-1.22,0,7.68-1.29,12.72-4.48,14.83-20.56,36.45-28.39,43.15,10.83-9.3,54.64-9.28,65.46,0-7.82-6.72-23.13-27.58-28.37-43.18a73.23,73.23,0,0,1-2-13c18.18,26.23,57.56,14,57.58-15.51" transform="translate(0 -0.01)"/><path class="cls-4" d="M897.7,703.25A30.09,30.09,0,0,0,870.33,720c-3.88,4.5-9.81,6.39-15.8,7.62,1.46-7.26,3.24-15.23,9-19.89a30.17,30.17,0,1,0-26-.36c4.85,3.66,6.9,12.49,8.36,20.12-5.93-1.36-11.79-3.42-15.53-8a30.13,30.13,0,1,0-27.72,42.77c12,.16,23.51-7.81,28.51-17.86,4.24-4.6,9.64-5.65,15.85-6.72.5,8.54.06,17.75-1.29,23.11-6.34,17.44-22,38.11-30.33,45.09,11.29-9.43,56.62-8.86,67.65.9-8.14-7.19-24.32-29.42-29.11-45.88-1.48-6.59-1.13-18.85-1-23.2,6.31,1.27,11.76,2.42,15.94,7.18,4.74,10.2,16.06,18.48,28,18.63a30.13,30.13,0,1,0,.79-60.26" transform="translate(0 -0.01)"/><path class="cls-4" d="M398.41,929.28c-13.17,0-72.3,59.56-72.27,72.74,0-13.18-59.56-72.32-72.73-72.29,13.17,0,72.3-59.53,72.27-72.72,0,13.19,59.56,72.31,72.73,72.27" transform="translate(0 -0.01)"/><path class="cls-5" d="M506.71,884.34c-19.16-36.18-69.06-22.72-69.43,12.94-.4,40,51,60.87,68.06,98.25l.27.52.28-.54c17.8-37,69.6-56.88,70-96.85.35-35.68-49.28-50.09-69.19-14.32" transform="translate(0 -0.01)"/><path class="cls-5" d="M734.22,936.07c0-34.57-44.61-52.24-59.66-84.38l-.23-.45-.23.43C659,883.83,614.39,901.46,614.37,936c0,28.92,38.22,40.09,56.86,15.9.41-1.22,0,7.68-1.28,12.72-4.48,14.83-20.57,36.44-28.39,43.14,10.82-9.29,54.63-9.28,65.45,0-7.81-6.72-23.12-27.57-28.36-43.17a73.34,73.34,0,0,1-2-13c18.18,26.25,57.56,14,57.57-15.5" transform="translate(0 -0.01)"/><path class="cls-4" d="M194.25,904.24A30.1,30.1,0,0,0,166.87,921c-3.87,4.49-9.8,6.39-15.79,7.61,1.45-7.27,3.23-15.23,9-19.89a30.16,30.16,0,1,0-26-.36c4.85,3.66,6.92,12.49,8.36,20.12-5.92-1.37-11.79-3.42-15.53-8a30.13,30.13,0,1,0-27.72,42.78c12,.16,23.51-7.83,28.51-17.88,4.25-4.59,9.65-5.64,15.86-6.71.49,8.54.06,17.75-1.3,23.11-6.33,17.43-22,38.12-30.33,45.09,11.31-9.44,56.61-8.86,67.66.9-8.14-7.19-24.33-29.43-29.11-45.88-1.48-6.59-1.13-18.85-1-23.19,6.3,1.26,11.76,2.42,15.94,7.18,4.73,10.2,16.05,18.47,28,18.63a30.14,30.14,0,0,0,.8-60.27" transform="translate(0 -0.01)"/><path class="cls-4" d="M1101.86,929.28c-13.17,0-72.29,59.56-72.26,72.74,0-13.18-59.56-72.32-72.73-72.29,13.17,0,72.3-59.53,72.27-72.72,0,13.19,59.55,72.31,72.72,72.27" transform="translate(0 -0.01)"/><path class="cls-5" d="M1210.17,884.34c-19.16-36.18-69.07-22.72-69.44,12.94-.39,40,51,60.87,68.06,98.25l.28.52.26-.54c17.81-37,69.61-56.88,70-96.85.35-35.68-49.29-50.09-69.19-14.32" transform="translate(0 -0.01)"/><path class="cls-5" d="M1437.68,936.07c0-34.57-44.61-52.24-59.67-84.38l-.22-.45-.23.43c-15.08,32.16-59.72,49.79-59.73,84.34,0,28.92,38.21,40.09,56.86,15.9.4-1.22,0,7.68-1.29,12.72-4.48,14.83-20.56,36.44-28.39,43.14,10.83-9.29,54.64-9.28,65.46,0-7.82-6.72-23.13-27.57-28.37-43.17a73.34,73.34,0,0,1-2-13c18.18,26.25,57.56,14,57.58-15.5" transform="translate(0 -0.01)"/><path class="cls-4" d="M897.7,904.24A30.08,30.08,0,0,0,870.33,921c-3.88,4.49-9.81,6.39-15.8,7.61,1.46-7.27,3.24-15.23,9-19.89a30.17,30.17,0,1,0-26-.36c4.85,3.66,6.9,12.49,8.36,20.12-5.93-1.37-11.79-3.42-15.53-8a30.13,30.13,0,1,0-27.72,42.78c12,.16,23.51-7.83,28.51-17.88,4.24-4.59,9.64-5.64,15.85-6.71.5,8.54.06,17.75-1.29,23.11-6.34,17.43-22,38.12-30.33,45.09,11.29-9.44,56.62-8.86,67.65.9-8.14-7.19-24.32-29.43-29.11-45.88-1.48-6.59-1.13-18.85-1-23.19,6.31,1.26,11.76,2.42,15.94,7.18,4.74,10.2,16.06,18.47,28,18.63a30.14,30.14,0,0,0,.79-60.27" transform="translate(0 -0.01)"/></g></g></g></g></svg>