<svg xmlns="http://www.w3.org/2000/svg" viewBox="0 0 1508.4 1056.18"><defs><style>.cls-1{fill:#fff;stroke:#000;stroke-miterlimit:10;}.cls-2{font-size:37.2px;font-family:MyriadPro-Regular, Myriad Pro;}.cls-3{letter-spacing:-0.02em;}</style></defs><g id="Layer_2" data-name="Layer 2"><g id="Calque_1" data-name="Calque 1"><rect class="cls-1" x="0.5" y="0.5" width="1507.4" height="1055.18"/><text class="cls-2" transform="translate(95.04 140.01)">100<tspan class="cls-3" x="57.24" y="0">D</tspan><tspan x="81.08" y="0">T</tspan></text><text class="cls-2" transform="translate(98.91 342)">100<tspan class="cls-3" x="57.24" y="0">D</tspan><tspan x="81.08" y="0">T</tspan></text><text class="cls-2" transform="translate(98.91 544.21)">100<tspan class="cls-3" x="57.24" y="0">D</tspan><tspan x="81.08" y="0">T</tspan></text><text class="cls-2" transform="translate(98.91 746.27)">100<tspan class="cls-3" x="57.24" y="0">D</tspan><tspan x="81.08" y="0">T</tspan></text><text class="cls-2" transform="translate(98.91 951.55)">100<tspan class="cls-3" x="57.24" y="0">D</tspan><tspan x="81.08" y="0">T</tspan></text><text class="cls-2" transform="translate(275.7 138.85)">100<tspan class="cls-3" x="57.24" y="0">D</tspan><tspan x="81.08" y="0">T</tspan></text><text class="cls-2" transform="translate(279.57 340.83)">100<tspan class="cls-3" x="57.24" y="0">D</tspan><tspan x="81.08" y="0">T</tspan></text><text class="cls-2" transform="translate(279.57 543.05)">100<tspan class="cls-3" x="57.24" y="0">D</tspan><tspan x="81.08" y="0">T</tspan></text><text class="cls-2" transform="translate(279.57 745.11)">100<tspan class="cls-3" x="57.24" y="0">D</tspan><tspan x="81.08" y="0">T</tspan></text><text class="cls-2" transform="translate(279.57 950.39)">100<tspan class="cls-3" x="57.24" y="0">D</tspan><tspan x="81.08" y="0">T</tspan></text><text class="cls-2" transform="translate(453.4 137.27)">100<tspan class="cls-3" x="57.24" y="0">D</tspan><tspan x="81.08" y="0">T</tspan></text><text class="cls-2" transform="translate(457.27 339.26)">100<tspan class="cls-3" x="57.24" y="0">D</tspan><tspan x="81.08" y="0">T</tspan></text><text class="cls-2" transform="translate(457.27 541.47)">100<tspan class="cls-3" x="57.24" y="0">D</tspan><tspan x="81.08" y="0">T</tspan></text><text class="cls-2" transform="translate(457.27 743.54)">100<tspan class="cls-3" x="57.24" y="0">D</tspan><tspan x="81.08" y="0">T</tspan></text><text class="cls-2" transform="translate(457.27 948.81)">100<tspan class="cls-3" x="57.24" y="0">D</tspan><tspan x="81.08" y="0">T</tspan></text><text class="cls-2" transform="translate(622.4 135.7)">100<tspan class="cls-3" x="57.24" y="0">D</tspan><tspan x="81.08" y="0">T</tspan></text><text class="cls-2" transform="translate(626.27 337.69)">100<tspan class="cls-3" x="57.24" y="0">D</tspan><tspan x="81.08" y="0">T</tspan></text><text class="cls-2" transform="translate(626.27 539.9)">100<tspan class="cls-3" x="57.24" y="0">D</tspan><tspan x="81.08" y="0">T</tspan></text><text class="cls-2" transform="translate(626.27 741.97)">100<tspan class="cls-3" x="57.24" y="0">D</tspan><tspan x="81.08" y="0">T</tspan></text><text class="cls-2" transform="translate(626.26 947.24)">100<tspan class="cls-3" x="57.24" y="0">D</tspan><tspan x="81.08" y="0">T</tspan></text><text class="cls-2" transform="translate(803.16 134.13)">100<tspan class="cls-3" x="57.24" y="0">D</tspan><tspan x="81.08" y="0">T</tspan></text><text class="cls-2" transform="translate(807.03 336.12)">100<tspan class="cls-3" x="57.24" y="0">D</tspan><tspan x="81.08" y="0">T</tspan></text><text class="cls-2" transform="translate(807.03 538.33)">100<tspan class="cls-3" x="57.24" y="0">D</tspan><tspan x="81.08" y="0">T</tspan></text><text class="cls-2" transform="translate(807.03 740.4)">100<tspan class="cls-3" x="57.24" y="0">D</tspan><tspan x="81.08" y="0">T</tspan></text><text class="cls-2" transform="translate(807.03 945.67)">100<tspan class="cls-3" x="57.24" y="0">D</tspan><tspan x="81.08" y="0">T</tspan></text><text class="cls-2" transform="translate(976.32 138.85)">100<tspan class="cls-3" x="57.24" y="0">D</tspan><tspan x="81.08" y="0">T</tspan></text><text class="cls-2" transform="translate(980.19 340.83)">100<tspan class="cls-3" x="57.24" y="0">D</tspan><tspan x="81.08" y="0">T</tspan></text><text class="cls-2" transform="translate(980.19 543.05)">100<tspan class="cls-3" x="57.24" y="0">D</tspan><tspan x="81.08" y="0">T</tspan></text><text class="cls-2" transform="translate(980.19 745.11)">100<tspan class="cls-3" x="57.24" y="0">D</tspan><tspan x="81.08" y="0">T</tspan></text><text class="cls-2" transform="translate(980.19 950.39)">100<tspan class="cls-3" x="57.24" y="0">D</tspan><tspan x="81.08" y="0">T</tspan></text><text class="cls-2" transform="translate(1157.09 132.97)">100<tspan class="cls-3" x="57.24" y="0">D</tspan><tspan x="81.08" y="0">T</tspan></text><text class="cls-2" transform="translate(1160.95 334.96)">100<tspan class="cls-3" x="57.24" y="0">D</tspan><tspan x="81.08" y="0">T</tspan></text><text class="cls-2" transform="translate(1160.95 537.17)">100<tspan class="cls-3" x="57.24" y="0">D</tspan><tspan x="81.08" y="0">T</tspan></text><text class="cls-2" transform="translate(1160.95 739.24)">100<tspan class="cls-3" x="57.24" y="0">D</tspan><tspan x="81.08" y="0">T</tspan></text><text class="cls-2" transform="translate(1160.95 944.51)">100<tspan class="cls-3" x="57.24" y="0">D</tspan><tspan x="81.08" y="0">T</tspan></text><text class="cls-2" transform="translate(1325.6 122.32)">100<tspan class="cls-3" x="57.24" y="0">D</tspan><tspan x="81.08" y="0">T</tspan></text><text class="cls-2" transform="translate(1329.46 324.31)">100<tspan class="cls-3" x="57.24" y="0">D</tspan><tspan x="81.08" y="0">T</tspan></text><text class="cls-2" transform="translate(1329.46 526.52)">100<tspan class="cls-3" x="57.24" y="0">D</tspan><tspan x="81.08" y="0">T</tspan></text><text class="cls-2" transform="translate(1329.47 728.58)">100<tspan class="cls-3" x="57.24" y="0">D</tspan><tspan x="81.08" y="0">T</tspan></text><text class="cls-2" transform="translate(1329.46 933.86)">100<tspan class="cls-3" x="57.24" y="0">D</tspan><tspan x="81.08" y="0">T</tspan></text></g></g></svg>