<svg xmlns="http://www.w3.org/2000/svg" xmlns:xlink="http://www.w3.org/1999/xlink" viewBox="0 0 1380.01 685.95"><defs><style>.cls-1,.cls-8{fill:none;}.cls-2{clip-path:url(#clip-path);}.cls-3{opacity:0.05;}.cls-4{clip-path:url(#clip-path-4);}.cls-5{fill:#020203;}.cls-6{fill:#a2a5aa;}.cls-7{fill:#696562;}.cls-8{stroke:#000;stroke-miterlimit:10;stroke-width:5.85px;stroke-dasharray:17.56 17.56;}</style><clipPath id="clip-path" transform="translate(-119.65 -47.34)"><rect class="cls-1" width="1590.69" height="795.35"/></clipPath><clipPath id="clip-path-4" transform="translate(-119.65 -47.34)"><rect class="cls-1" x="1125.24" y="123.81" width="197.53" height="609.48"/></clipPath></defs><g id="Layer_2" data-name="Layer 2"><g id="Calque_1" data-name="Calque 1"><g class="cls-2"><g class="cls-2"><g class="cls-2"><g class="cls-3"><g class="cls-4"><path class="cls-5" d="M1264.89,733.29H1125.24V588.86l39.81-40.59V304.88l-39.81-31.73V123.81H1320.5c3.42,91.5,11.83,449.15-55.61,609.48" transform="translate(-119.65 -47.34)"/></g></g></g><polygon class="cls-6" points="1011.09 680.45 1011.09 543.77 1050.89 503.17 1050.89 254.89 1011.09 223.16 1011.09 81.98 1374.51 81.98 1374.51 223.18 1337.62 252.33 1337.62 503.21 1374.51 543.8 1374.51 680.45 1011.09 680.45"/><path d="M1488.66,134.81v133L1456,293.69l-4.19,3.31V552.67l2.86,3.15,34,37.45v129H1136.24V593.36L1172.9,556l3.15-3.21V299.58l-4.14-3.31-35.67-28.42v-133Zm11-11H1125.24V273.15l39.81,31.73V548.26l-39.81,40.6V733.29h374.42V589l-36.89-40.59V302.33l36.89-29.15Z" transform="translate(-119.65 -47.34)"/><g class="cls-2"><path d="M1315.71,288.1A72.06,72.06,0,1,1,1387.5,216a71.93,71.93,0,0,1-71.79,72.06" transform="translate(-119.65 -47.34)"/><path class="cls-6" d="M1315.73,283.67a66.69,66.69,0,0,1-24.84-4.77,61.74,61.74,0,0,1-5.63-2.54,67.44,67.44,0,0,1-17.94-13.28q-1.68-1.77-3.27-3.63a44.27,44.27,0,0,0,6.22-5.56c7.21-7.66,13.4-19.58,13.4-37.85,0-23.62-10.37-36.4-19.86-43.14a65.42,65.42,0,0,1,5.87-6.24,67.22,67.22,0,0,1,98,6.24c-9.49,6.74-19.86,19.52-19.86,43.14,0,23.45,10.19,36.43,19.62,43.41a67.45,67.45,0,0,1-26.83,19.45,66.77,66.77,0,0,1-24.84,4.77" transform="translate(-119.65 -47.34)"/><rect x="1103.68" y="256.77" width="184.75" height="169.52"/><rect class="cls-6" x="1110.4" y="263.95" width="171.31" height="155.16"/><path d="M1338.82,514.69a21.93,21.93,0,1,1-21.93-21.93,21.93,21.93,0,0,1,21.93,21.93" transform="translate(-119.65 -47.34)"/><path d="M1337.12,514.66a20.22,20.22,0,1,1-20.22-20.22,20.22,20.22,0,0,1,20.22,20.22" transform="translate(-119.65 -47.34)"/><path d="M1393.54,514.69a21.93,21.93,0,1,1-21.93-21.93,21.93,21.93,0,0,1,21.93,21.93" transform="translate(-119.65 -47.34)"/><path d="M1391.83,514.66a20.22,20.22,0,1,1-20.22-20.22,20.22,20.22,0,0,1,20.22,20.22" transform="translate(-119.65 -47.34)"/><path d="M1284.1,569.24a21.93,21.93,0,1,1-21.93-21.92,21.92,21.92,0,0,1,21.93,21.92" transform="translate(-119.65 -47.34)"/><path d="M1282.39,569.21A20.22,20.22,0,1,1,1262.17,549a20.22,20.22,0,0,1,20.22,20.23" transform="translate(-119.65 -47.34)"/><path d="M1338.82,569.24a21.93,21.93,0,1,1-21.93-21.92,21.92,21.92,0,0,1,21.93,21.92" transform="translate(-119.65 -47.34)"/><path d="M1337.12,569.21A20.22,20.22,0,1,1,1316.9,549a20.22,20.22,0,0,1,20.22,20.23" transform="translate(-119.65 -47.34)"/><path d="M1393.54,569.24a21.93,21.93,0,1,1-21.93-21.92,21.92,21.92,0,0,1,21.93,21.92" transform="translate(-119.65 -47.34)"/><path d="M1391.83,569.21A20.22,20.22,0,1,1,1371.61,549a20.22,20.22,0,0,1,20.22,20.23" transform="translate(-119.65 -47.34)"/><path d="M1284.1,623.78a21.93,21.93,0,1,1-21.93-21.91,21.93,21.93,0,0,1,21.93,21.91" transform="translate(-119.65 -47.34)"/><path d="M1282.39,623.76a20.22,20.22,0,1,1-20.22-20.22,20.22,20.22,0,0,1,20.22,20.22" transform="translate(-119.65 -47.34)"/><path d="M1338.82,623.78a21.93,21.93,0,1,1-21.93-21.91,21.93,21.93,0,0,1,21.93,21.91" transform="translate(-119.65 -47.34)"/><path d="M1337.12,623.76a20.22,20.22,0,1,1-20.22-20.22,20.22,20.22,0,0,1,20.22,20.22" transform="translate(-119.65 -47.34)"/><path d="M1393.54,623.78a21.93,21.93,0,1,1-21.93-21.91,21.93,21.93,0,0,1,21.93,21.91" transform="translate(-119.65 -47.34)"/><path d="M1391.83,623.76a20.22,20.22,0,1,1-20.22-20.22,20.22,20.22,0,0,1,20.22,20.22" transform="translate(-119.65 -47.34)"/><path d="M1284.1,678.34a21.93,21.93,0,1,1-21.93-21.93,21.93,21.93,0,0,1,21.93,21.93" transform="translate(-119.65 -47.34)"/><path d="M1282.39,678.31a20.22,20.22,0,1,1-20.22-20.22,20.22,20.22,0,0,1,20.22,20.22" transform="translate(-119.65 -47.34)"/><path d="M1338.82,678.34a21.93,21.93,0,1,1-21.93-21.93,21.93,21.93,0,0,1,21.93,21.93" transform="translate(-119.65 -47.34)"/><path d="M1337.12,678.31a20.22,20.22,0,1,1-20.22-20.22,20.22,20.22,0,0,1,20.22,20.22" transform="translate(-119.65 -47.34)"/><path d="M1393.54,678.34a21.93,21.93,0,1,1-21.93-21.93,21.93,21.93,0,0,1,21.93,21.93" transform="translate(-119.65 -47.34)"/><path d="M1391.83,678.31a20.22,20.22,0,1,1-20.22-20.22,20.22,20.22,0,0,1,20.22,20.22" transform="translate(-119.65 -47.34)"/><path d="M1309.68,522.51c6.79-6.77,10.64-10.84,10.64-14.52,0-2.57-1.41-4.41-4.3-4.41a6.61,6.61,0,0,0-4.8,2.71l-1.69-1.64c1.88-2.08,3.93-3.44,6.85-3.44,4.18,0,6.79,2.63,6.79,6.65,0,4.25-3.9,8.46-9.23,14.07,1.23-.1,2.63-.2,3.8-.2h6.54v2.51h-14.6Z" transform="translate(-119.65 -47.34)"/><path class="cls-6" d="M1316.38,501.21c-2.93,0-5,1.36-6.85,3.44l1.69,1.64a6.61,6.61,0,0,1,4.81-2.71c2.88,0,4.28,1.84,4.28,4.41,0,3.68-3.84,7.75-10.64,14.52v1.73h14.61v-2.51h-6.54c-1.17,0-2.58.1-3.8.2,5.33-5.61,9.22-9.82,9.22-14.07,0-4-2.6-6.65-6.78-6.65" transform="translate(-119.65 -47.34)"/><path d="M1363.53,521.47l1.47-1.9a7.71,7.71,0,0,0,5.77,2.67c2.74,0,4.69-1.6,4.69-4.15s-1.84-4.48-7.21-4.48v-2.24c4.79,0,6.41-1.84,6.41-4.21,0-2.2-1.51-3.58-3.91-3.58a6.78,6.78,0,0,0-4.81,2.3l-1.58-1.86a9.4,9.4,0,0,1,6.5-2.82c3.93,0,6.77,2.1,6.77,5.74,0,2.73-1.66,4.47-4.12,5.38v.14c2.74.64,4.91,2.64,4.91,5.74,0,4-3.32,6.46-7.46,6.46a9.53,9.53,0,0,1-7.43-3.19" transform="translate(-119.65 -47.34)"/><path class="cls-6" d="M1370.86,501.21a9.43,9.43,0,0,0-6.5,2.81l1.58,1.86a6.79,6.79,0,0,1,4.82-2.3c2.39,0,3.9,1.38,3.9,3.58,0,2.37-1.62,4.21-6.41,4.21v2.24c5.37,0,7.21,1.8,7.21,4.48s-2,4.14-4.69,4.14a7.67,7.67,0,0,1-5.77-2.66l-1.47,1.9a9.54,9.54,0,0,0,7.43,3.2c4.14,0,7.46-2.44,7.46-6.46,0-3.11-2.17-5.1-4.9-5.75v-.14c2.45-.91,4.1-2.65,4.1-5.37,0-3.65-2.83-5.74-6.76-5.74" transform="translate(-119.65 -47.34)"/><path d="M1267.5,570.56h-3.08v-14h-3.24L1251.5,571v1.93h10.16v6.24h2.76v-6.24h3.08Zm-12.94,0,5.28-7.72c.64-1.12,1.28-2.11,1.85-3.19h.14c-.07,1.19-.17,3.14-.17,4.33v6.58Z" transform="translate(-119.65 -47.34)"/><path class="cls-6" d="M1264.42,556.52h-3.24L1251.5,571v1.93h10.16v6.24h2.76v-6.24h3.08v-2.33h-3.08Zm-9.86,14,5.28-7.72c.64-1.12,1.28-2.11,1.85-3.19h.14c-.07,1.19-.17,3.14-.17,4.33v6.58Z" transform="translate(-119.65 -47.34)"/><path d="M1309.65,576.46l1.44-1.91a7.7,7.7,0,0,0,5.7,2.58,4.85,4.85,0,0,0,5-5.15c0-3.12-1.9-5-4.8-5a6.31,6.31,0,0,0-3.88,1.37l-1.55-1,.75-10.89h11.31V559h-8.76l-.59,6.71a6.73,6.73,0,0,1,3.47-.94c3.85,0,7,2.2,7,7.08a7.4,7.4,0,0,1-7.61,7.67,9.91,9.91,0,0,1-7.44-3.09" transform="translate(-119.65 -47.34)"/><path class="cls-6" d="M1323.57,556.52h-11.31l-.74,10.89,1.54,1a6.31,6.31,0,0,1,3.88-1.37c2.89,0,4.8,1.84,4.8,5a4.85,4.85,0,0,1-5,5.15,7.7,7.7,0,0,1-5.7-2.58l-1.44,1.91a9.91,9.91,0,0,0,7.43,3.1,7.41,7.41,0,0,0,7.62-7.68c0-4.88-3.15-7.08-7-7.08a6.75,6.75,0,0,0-3.47.94l.6-6.71h8.75Z" transform="translate(-119.65 -47.34)"/><path d="M1363.62,568.86c0-9.09,4.11-12.59,8.61-12.59a7.18,7.18,0,0,1,5.45,2.39l-1.62,1.82a4.94,4.94,0,0,0-3.71-1.79c-3.25,0-6,2.58-6,10.17,0,5.56,1.81,8.57,5.05,8.57,2.21,0,3.93-2,3.93-5s-1.38-4.8-4.19-4.8c-1.46,0-3.3.88-4.85,3.2l-.1-2.3a7.25,7.25,0,0,1,5.44-3.09c3.92,0,6.45,2.35,6.45,7,0,4.33-3,7.25-6.68,7.25-4.46,0-7.8-3.61-7.8-10.86" transform="translate(-119.65 -47.34)"/><path class="cls-6" d="M1372.24,556.27c-4.51,0-8.61,3.49-8.61,12.59,0,7.25,3.33,10.86,7.8,10.86,3.62,0,6.67-2.92,6.67-7.25,0-4.63-2.53-7-6.44-7a7.15,7.15,0,0,0-5.28,2.87v.51c0,.64,0,1.25.06,1.81,1.53-2.16,3.3-3,4.73-3,2.79,0,4.18,1.85,4.18,4.8s-1.72,5-3.93,5c-2.87,0-4.61-2.36-5-6.76l-.13.2-.1-2.3.17-.22c.12-7.19,2.79-9.66,6-9.66a4.92,4.92,0,0,1,3.71,1.79l1.62-1.82a7.17,7.17,0,0,0-5.44-2.39" transform="translate(-119.65 -47.34)"/><path d="M1266.59,614.6h-11.25v-2.51h14.56v1.79c-5.35,6.84-6.45,12-6.84,20.82h-3c.38-8.52,2.08-13.9,6.53-20.1" transform="translate(-119.65 -47.34)"/><path class="cls-6" d="M1269.9,612.09h-14.56v2.51h11.24c-4.44,6.2-6.14,11.58-6.52,20.1h3c.38-8.82,1.49-14,6.84-20.82Z" transform="translate(-119.65 -47.34)"/><path d="M1309.72,628.57c0-2.94,2.14-4.94,4.26-6.08v-.13a6.42,6.42,0,0,1-3.15-5.23c0-3.48,2.76-5.8,6.39-5.8,4,0,6.39,2.5,6.39,6,0,2.37-1.72,4.4-3.12,5.46v.14c2,1.19,3.93,2.78,3.93,5.8,0,3.4-2.91,6-7.28,6s-7.42-2.62-7.42-6.22m11.91.1c0-2.93-2.86-4-6.12-5.29-1.82,1.18-3.16,2.86-3.16,4.93,0,2.49,2.07,4.31,4.84,4.31s4.44-1.63,4.44-4m-.54-11.17a3.77,3.77,0,0,0-3.93-4,3.5,3.5,0,0,0-3.66,3.64c0,2.69,2.5,3.83,5.21,4.91a6.1,6.1,0,0,0,2.38-4.54" transform="translate(-119.65 -47.34)"/><path class="cls-6" d="M1317.22,611.33c-3.63,0-6.39,2.32-6.39,5.8a6.42,6.42,0,0,0,3.15,5.23v.13c-2.12,1.14-4.26,3.14-4.26,6.08,0,3.6,3.14,6.22,7.42,6.22s7.28-2.65,7.28-6c0-3-1.91-4.61-3.93-5.8v-.14c1.4-1.06,3.12-3.09,3.12-5.46,0-3.51-2.43-6-6.39-6m1.49,10.71c-2.71-1.08-5.21-2.22-5.21-4.91a3.5,3.5,0,0,1,3.66-3.64,3.77,3.77,0,0,1,3.93,4,6.1,6.1,0,0,1-2.38,4.54m-1.52,10.58c-2.77,0-4.84-1.82-4.84-4.31,0-2.07,1.34-3.75,3.16-4.93,3.26,1.32,6.12,2.36,6.12,5.29,0,2.32-1.79,4-4.44,4" transform="translate(-119.65 -47.34)"/><path d="M1365.61,631.72l1.62-1.83a4.9,4.9,0,0,0,3.71,1.78c3.26,0,6-2.58,6-10.15,0-5.56-1.81-8.57-5.05-8.57-2.22,0-3.93,2-3.93,4.95s1.38,4.8,4.18,4.8c1.47,0,3.31-.88,4.86-3.2l.1,2.3a7.25,7.25,0,0,1-5.45,3.1c-3.91,0-6.44-2.36-6.44-7,0-4.33,3-7.25,6.68-7.25,4.45,0,7.8,3.61,7.8,10.87,0,9.09-4.11,12.59-8.62,12.59a7.17,7.17,0,0,1-5.44-2.39" transform="translate(-119.65 -47.34)"/><path class="cls-6" d="M1371.86,610.65c-3.62,0-6.67,2.92-6.67,7.25,0,4.64,2.53,7,6.44,7a7.13,7.13,0,0,0,5.28-2.88v-.5c0-.64,0-1.25-.07-1.82-1.52,2.17-3.29,3-4.72,3-2.8,0-4.18-1.85-4.18-4.8s1.71-4.95,3.93-4.95c2.87,0,4.61,2.36,5,6.75a2.43,2.43,0,0,0,.14-.2l.1,2.3-.17.22c-.12,7.2-2.78,9.65-6,9.65a4.88,4.88,0,0,1-3.71-1.78l-1.63,1.83a7.2,7.2,0,0,0,5.46,2.39c4.5,0,8.61-3.5,8.61-12.59,0-7.26-3.34-10.87-7.81-10.87" transform="translate(-119.65 -47.34)"/><polygon points="1136.45 618.99 1149.86 618.99 1149.86 621.5 1139.41 621.5 1139.41 628.79 1148.22 628.79 1148.22 631.29 1139.41 631.29 1139.41 639.75 1150.21 639.75 1150.21 642.25 1136.45 642.25 1136.45 618.99"/><polygon class="cls-6" points="1149.86 618.99 1136.45 618.99 1136.45 642.25 1150.21 642.25 1150.21 639.75 1139.41 639.75 1139.41 631.29 1148.22 631.29 1148.22 628.79 1139.41 628.79 1139.41 621.5 1149.86 621.5 1149.86 618.99"/><path d="M1362.31,678.15c0-7.5,4.42-12.08,10.32-12.08a8.68,8.68,0,0,1,6.4,2.87l-1.62,1.93a6.32,6.32,0,0,0-4.73-2.19c-4.39,0-7.31,3.6-7.31,9.39s2.78,9.51,7.2,9.51A7,7,0,0,0,1378,685l1.62,1.86a9,9,0,0,1-7.13,3.36c-5.8,0-10.14-4.49-10.14-12" transform="translate(-119.65 -47.34)"/><path class="cls-6" d="M1372.63,666.07c-5.9,0-10.32,4.58-10.32,12.08s4.34,12,10.14,12a9,9,0,0,0,7.13-3.37L1378,685a7,7,0,0,1-5.39,2.6c-4.41,0-7.21-3.66-7.21-9.51s2.93-9.39,7.32-9.39a6.34,6.34,0,0,1,4.73,2.19l1.62-1.93a8.7,8.7,0,0,0-6.4-2.87" transform="translate(-119.65 -47.34)"/><path d="M1309.71,677.18c0-7.57,2.73-11.64,7.24-11.64s7.25,4.08,7.25,11.64S1321.47,689,1317,689s-7.24-4.23-7.24-11.81m11.66,0c0-6.62-1.79-9.29-4.42-9.29s-4.41,2.67-4.41,9.29,1.79,9.47,4.41,9.47,4.42-2.84,4.42-9.47" transform="translate(-119.65 -47.34)"/><path class="cls-6" d="M1317,665.54c-4.52,0-7.24,4.06-7.24,11.64S1312.44,689,1317,689s7.24-4.24,7.24-11.82-2.73-11.64-7.24-11.64m0,21.11c-2.63,0-4.42-2.84-4.42-9.47s1.79-9.29,4.42-9.29,4.41,2.67,4.41,9.29-1.78,9.47-4.41,9.47" transform="translate(-119.65 -47.34)"/><path d="M1284.1,514.69a21.93,21.93,0,1,1-21.93-21.93,21.93,21.93,0,0,1,21.93,21.93" transform="translate(-119.65 -47.34)"/><path d="M1282.39,514.66a20.22,20.22,0,1,1-20.22-20.22,20.22,20.22,0,0,1,20.22,20.22" transform="translate(-119.65 -47.34)"/><path d="M1260.31,506.89h-4.12V505a13.43,13.43,0,0,0,4.81-1.67h2.23V526h-2.92Z" transform="translate(-119.65 -47.34)"/><path class="cls-6" d="M1263.23,503.36H1261a13.76,13.76,0,0,1-4.81,1.66v1.87h4.12V526h2.92Z" transform="translate(-119.65 -47.34)"/><rect width="914.63" height="684.22"/><rect class="cls-6" x="15.66" y="13.74" width="883.31" height="656.75"/><path d="M935.57,261a10.28,10.28,0,0,1-10.27,10.28h-8.81a10.28,10.28,0,1,1,0-20.55h8.81A10.27,10.27,0,0,1,935.57,261" transform="translate(-119.65 -47.34)"/><path d="M935.57,387.65a10.28,10.28,0,0,1-10.27,10.28h-8.81a10.28,10.28,0,1,1,0-20.56h8.81a10.27,10.27,0,0,1,10.27,10.28" transform="translate(-119.65 -47.34)"/><path d="M935.57,516.73A10.28,10.28,0,0,1,925.3,527h-8.81a10.28,10.28,0,1,1,0-20.55h8.81a10.27,10.27,0,0,1,10.27,10.27" transform="translate(-119.65 -47.34)"/><path d="M669.4,334.56a75.85,75.85,0,1,1-107.27,1.36,75.85,75.85,0,0,1,107.27-1.36" transform="translate(-119.65 -47.34)"/><path class="cls-6" d="M616.44,468.06a79.16,79.16,0,1,1,56.74-23.88,78.9,78.9,0,0,1-56.74,23.88m0-151.64A72.43,72.43,0,1,0,667.05,337a72.23,72.23,0,0,0-50.59-20.55" transform="translate(-119.65 -47.34)"/><path d="M784.37,529q-5.4,6.45-11.32,12.52-5.61,5.76-11.58,11.07l-6.4-6.25-22.66-22.08L616.74,411.52,593.2,388.57,478.13,276.39,455.47,254.3l-6.4-6.24q5.16-6.1,10.77-11.87,5.93-6.06,12.23-11.62l6.4,6.24,22.67,22.1L616.14,365l23.55,23L755.3,500.7,778,522.79Z" transform="translate(-119.65 -47.34)"/><path d="M780.19,243.85,774,250.26l-22.09,22.65L639.69,388l-23,23.54L504,527.19l-22.09,22.66-6.24,6.4q-6.11-5.14-11.87-10.77-6.06-5.91-11.62-12.22l6.24-6.41,22.09-22.67L593.2,388.57,616.15,365,728.27,250l22.11-22.67,6.23-6.4q6.46,5.4,12.52,11.32,5.76,5.61,11.06,11.58" transform="translate(-119.65 -47.34)"/><path class="cls-7" d="M421.1,333.76l-7.29-2.1.72-2.43,7.26,2.19-.69,2.34" transform="translate(-119.65 -47.34)"/><path class="cls-6" d="M652.66,424.17a50.57,50.57,0,1,1-.91-71.51,50.62,50.62,0,0,1,.91,71.51" transform="translate(-119.65 -47.34)"/><path d="M756.61,221a218.66,218.66,0,0,0-284.54,3.61q-6.31,5.55-12.23,11.62-5.61,5.77-10.76,11.87a218.69,218.69,0,0,0,3.07,285.2q5.55,6.3,11.62,12.22,5.78,5.63,11.87,10.77a218.68,218.68,0,0,0,285.83-3.63q6-5.31,11.59-11.07c3.94-4,7.72-8.22,11.3-12.51a218.69,218.69,0,0,0-4.16-285.18q-5.31-6-11.07-11.6c-4-3.93-8.21-7.71-12.52-11.3m31.17,95.85a185.78,185.78,0,0,1-27,189.2q-5.31,6.53-11.23,12.6-5.62,5.77-11.67,11a185.76,185.76,0,0,1-239.19,3q-6.17-5.05-11.94-10.69-6.08-5.93-11.54-12.31a185.81,185.81,0,0,1-2.49-238.55q5.07-6.16,10.69-11.94,5.92-6.07,12.31-11.54a185.72,185.72,0,0,1,237.89-3q6.52,5.29,12.6,11.22,5.77,5.64,11,11.67a184.49,184.49,0,0,1,30.6,49.34" transform="translate(-119.65 -47.34)"/><path class="cls-6" d="M416.83,449a3.8,3.8,0,0,1-3.66-2.79,210.86,210.86,0,0,1,.65-114.52,3.79,3.79,0,1,1,7.28,2.11,203.36,203.36,0,0,0-.62,110.4,3.79,3.79,0,0,1-2.64,4.66,4,4,0,0,1-1,.14" transform="translate(-119.65 -47.34)"/><path class="cls-6" d="M453,520.78a3.78,3.78,0,0,1-3-1.46,209.06,209.06,0,0,1-27.51-46.59,3.79,3.79,0,0,1,7-3,201.53,201.53,0,0,0,26.51,44.9,3.79,3.79,0,0,1-3,6.12" transform="translate(-119.65 -47.34)"/><path class="cls-6" d="M776.48,523.67a3.79,3.79,0,0,1-2.94-6.18,201.76,201.76,0,0,0,29.19-48.71,3.79,3.79,0,1,1,7,2.94,208.86,208.86,0,0,1-30.29,50.54,3.77,3.77,0,0,1-2.95,1.41" transform="translate(-119.65 -47.34)"/><path class="cls-6" d="M819.38,429a3.39,3.39,0,0,1-.64-.05,3.8,3.8,0,0,1-3.11-4.38,203.14,203.14,0,0,0-12-110.9,3.79,3.79,0,1,1,7-2.86,210.61,210.61,0,0,1,12.41,115.05,3.78,3.78,0,0,1-3.73,3.14" transform="translate(-119.65 -47.34)"/><path d="M302.84,382.1a38.07,38.07,0,1,0-36.49-.44l-16.76,64a16.57,16.57,0,0,0,16,20.77h37.84a16.57,16.57,0,0,0,16-20.77Z" transform="translate(-119.65 -47.34)"/><path class="cls-8" d="M155.08,677.23V101.41a26.7,26.7,0,0,1,26.71-26.7H974.67a26.7,26.7,0,0,1,26.7,26.7V677.23a26.71,26.71,0,0,1-26.7,26.7H181.79A26.71,26.71,0,0,1,155.08,677.23Z" transform="translate(-119.65 -47.34)"/></g></g></g></g></g></svg>