<svg xmlns="http://www.w3.org/2000/svg" viewBox="0 0 10.64 9.98"><defs><style>.cls-1{fill:#dbd7d1;}.cls-2{fill:#333;}</style></defs><g id="Layer_2" data-name="Layer 2"><g id="Ñëîé_1" data-name="Ñëîé 1"><polygon class="cls-1" points="6.97 1.07 6.97 1.06 6.97 1.06 6.97 1.07"/><polygon class="cls-1" points="4.93 9.57 4.94 9.57 4.94 9.57 4.94 9.57 4.94 9.57 4.94 9.57 4.94 9.57 4.93 9.57 4.93 9.57"/><polygon class="cls-1" points="8.85 6.67 8.86 6.66 8.85 6.66 8.85 6.67"/><path class="cls-1" d="M7.94.55c-.19.14-.37.28-.57.4L7.23,1c-.05.05-.1,0-.13,0A.35.35,0,0,1,7,1.17s0,0,0,0,0-.07,0-.11,0,0,0-.05A.06.06,0,0,1,7,1c0-.07.11-.14,0-.2s0,0,0-.05.06-.17,0-.17v0c0-.08,0-.2-.08-.23s0-.11-.06-.16-.06-.1-.17,0A.09.09,0,0,1,6.5,0s0,0,0,0c-.18.08-.36.16-.54.26L5.3.63c-.09.06-.12,0-.12-.08a.13.13,0,0,1,0-.06.24.24,0,0,0,0-.17A.29.29,0,0,0,4.75.24L4.27.6c-.36.27-.71.55-1.06.85s-1,.85-1.46,1.3l-1,1a2.43,2.43,0,0,0-.41.49,2.65,2.65,0,0,0-.36,1c0,.16,0,.24.14.26s.08,0,.05.1a.14.14,0,0,0,0,.06c0,.09.05.15.11.11s.05,0,0,0,0-.17,0-.25a.11.11,0,0,1,0-.08l.1-.1s.16,0,.16,0,.08.19,0,.31h0s-.07.11,0,.15,0,.13,0,.2h0s0,0,0,0,0,0,0-.05a.41.41,0,0,0-.11.24s.1-.06.12,0,0,.06.08.09l0,.07c-.09.21-.06.36.1.44l.06,0s.05,0,.07,0,.11-.14.2-.1.06,0,0,.11-.05.07,0,.1,0,0,0,0,0-.11.15-.11l.06,0c.05,0,.09,0,.12,0a.07.07,0,0,1,0,.1c-.11.09-.14.25-.22.36s-.06.19-.07.3,0,.31.12.37,0,0,0,0,0,0,0,0,.19-.1.27-.18.09-.06.13,0,.09,0,.14,0A.38.38,0,0,0,2,7.66a1.26,1.26,0,0,0,.18-.27c-.1.06-.15.16-.22.22s0-.06,0-.11,0-.07,0-.09.06,0,.08-.06,0-.06,0-.11.18-.13.24-.23.16-.28.31-.29,0,.08,0,.12,0,0,0,.06,0,.08,0,.14a1.74,1.74,0,0,0-.11.18.43.43,0,0,1-.13.16.16.16,0,0,0-.12.16c.06-.08.06-.08.14-.1a1.51,1.51,0,0,1-.1.3A1.22,1.22,0,0,0,2.18,8c0,.16,0,.23.17.18a.89.89,0,0,0,.23-.13s0,.09,0,.14a.7.7,0,0,1,.3-.39c0,.08-.06.11-.08.16s0,.09,0,.12,0,.16.1.2,0,.06,0,.11a1,1,0,0,0,.47-.2c0,.14-.06.23-.11.25A.45.45,0,0,0,3,8.73H3c.06-.07.1-.2.21-.16h0c0-.09.09-.14.11-.22s.07-.16.19-.15-.17.2-.19.36c0,0,.08,0,.09,0s0,.05,0,.08-.05.05,0,.09h0c.07,0,.09,0,.11.08s0,.06-.06.08l0,0c0,.1-.09.2,0,.3s.07-.06.1-.11,0,0,0,0,0-.06,0,0,0,0,0,.07l.13-.05S3.68,9,3.74,9s0,0,0,0a.1.1,0,0,1,.14-.05s0,.07,0,.11,0,0,0,0a0,0,0,0,0,0,0H4a0,0,0,0,0,0-.05S3.94,9,4,9a.24.24,0,0,0,.07-.12c.06-.17.1-.21.22-.18s0,0,.07,0,0-.05.06,0a.09.09,0,0,1,0,.1.53.53,0,0,1-.08.17.87.87,0,0,0-.07.17,1,1,0,0,0,0,.17s.07,0,.09.05h0c0,.08.08.06.13,0a.11.11,0,0,1,.15,0s0,0,0,.06.08.07,0,.16a.3.3,0,0,0-.11.2c.08-.09.12-.05.17,0,0-.1.09-.11.14-.14s.1,0,.11-.07,0-.09-.07-.15,0,0,0-.06a0,0,0,0,1,.07,0c0,.05.07.06.11.05a.37.37,0,0,1,.08-.2A1,1,0,0,0,5.3,8.9s0,0,0,0h0s0,0,0,0S5.31,9,5.3,9.1A.38.38,0,0,0,5.48,9c0,.09,0,.15-.07.15s-.08.06-.12.1.08,0,.12,0,.13-.15.22-.11l0,0,.09-.18h0c-.05,0-.05.08-.08.12s0,0-.05,0A0,0,0,0,1,5.6,9a.52.52,0,0,1,.11-.19c.08-.07.07-.09.11,0s0,.1,0,.15a2.67,2.67,0,0,0-.2.46,1,1,0,0,1-.15.29c-.07.06,0,.09,0,.13a.83.83,0,0,0,.11-.15s0-.11.11-.12,0,.06,0,.09a.21.21,0,0,0,.06-.17s0-.06,0,0,.11,0,.14-.07a.29.29,0,0,1,.2-.15.41.41,0,0,0,.2-.13c.06-.06.1-.11.17-.1A.06.06,0,0,0,6.53,9a.85.85,0,0,1,.24-.37.1.1,0,0,0,0-.07.37.37,0,0,1,.11-.31c.08-.07.17-.17.25-.17a.31.31,0,0,0,.22-.15,3.08,3.08,0,0,1,.24-.27c0-.06.14-.1.16-.21s0,0,.07-.06a.73.73,0,0,0,.22-.24c.07-.13.14-.22.26-.16s0-.07,0-.1l.06,0c.06,0,.13,0,.18-.09s.3-.23.46-.37A.15.15,0,0,1,9,6.53c-.06,0-.08.07-.1.13L9,6.6s0,0,0,0,.05.09.09.12A.15.15,0,0,1,9,6.84s-.06,0,0,0,0,0,0,0a0,0,0,0,0,0,0,1.35,1.35,0,0,1-.33.38.33.33,0,0,1-.11.09.15.15,0,0,0-.12.1s-.07,0-.11,0,0,0,0-.09,0-.06,0-.08-.12.19-.15.3l.2-.07c0,.12-.15.12-.16.24s.06,0,.09-.07a1.27,1.27,0,0,1,.3-.27.49.49,0,0,0,.16-.16s0,0,0,0,0,0,.06,0A.61.61,0,0,1,9,6.94a.53.53,0,0,0,.28-.32s0,0,0,0,0-.06.06,0,0,.05,0,.07-.06,0-.05.09-.06.17-.09.25.12-.1.16-.18a.85.85,0,0,1,.2-.25.76.76,0,0,0,.2-.2c0-.06.08-.08.13,0s-.08,0-.08.1a.49.49,0,0,1-.07.11c.19-.06.25-.31.42-.41,0,0-.09,0-.08-.08a1.34,1.34,0,0,0,.21-.3c.07,0,.09-.06.15-.1s-.07,0-.1,0a.41.41,0,0,0,.08-.19,0,0,0,0,0,0-.05s0,0,0,0l-.09.3a.11.11,0,0,0-.07-.06s0,.09-.08.06.05-.11,0-.17c-.11.1-.11.1-.24.08h0c0-.06.06-.09.06-.15s0-.06.05-.06.06,0,.09-.07,0-.2.16-.2,0,0,0,0,0-.06-.06,0-.08.06-.1,0a.18.18,0,0,1,0-.13l0-.07s0,0,0-.05S10,4.64,10,4.54s-.11.12-.16,0,0,0,0,0a5.18,5.18,0,0,0-.63.3c-.06,0-.09,0-.12,0l0,0C9,4.72,9,4.7,9.07,4.64a.35.35,0,0,0,0-.08s0-.09.09-.12a.06.06,0,0,1,0,.06s0,.06,0,.08,0,0,.05,0,.06-.05.09,0,.06,0,.07,0,0-.06,0-.07h0c-.06,0-.08,0,0-.13s-.09,0-.09-.06,0,0,0-.05,0-.06,0,0-.08,0-.06-.06,0,0-.06,0A.4.4,0,0,1,9,4.15a.4.4,0,0,0-.17.09s-.09.08-.14,0l.06-.14s0-.08,0-.11,0-.13,0-.21,0-.11,0-.11,0,0-.05-.07,0-.1-.11,0a2.38,2.38,0,0,1-.41.23L8,3.87a.06.06,0,0,1-.06-.08c0-.08,0-.21.15-.26a0,0,0,0,0,0,0s0,0,0,0-.08,0-.12.05a.16.16,0,0,0-.1.17s0,.07,0,.15a.2.2,0,0,0-.06-.2c.09-.07.14-.18.24-.19H8A.23.23,0,0,0,8,3.35c.06-.08.15-.13.12-.26s0-.06,0-.07.09-.06.06-.12,0,0,0-.07a1.29,1.29,0,0,0,.26-.49.06.06,0,0,0,0,0h0s0,0,0,.08a.17.17,0,0,1-.05.14c-.07,0-.1.11-.14.16s-.13-.09,0-.29c0,0,0,.08.06.1s0-.23,0-.36,0,0-.07.06-.07,0-.05,0S8.14,2,8.09,2A.17.17,0,0,1,8,1.88s0-.08-.08,0a0,0,0,0,1,0,0c-.05-.05-.1,0-.15,0A.31.31,0,0,1,7.68,2c-.08-.12-.1-.11-.17,0s-.07.17-.17.15-.09,0-.12.09,0,0-.06,0a.09.09,0,0,0-.07,0A.22.22,0,0,1,7,2.58a.58.58,0,0,0-.11.15.3.3,0,0,1-.08.08,2.33,2.33,0,0,0-.38.26s0,0,0,0a0,0,0,0,1,0,0l.08-.08c.07,0,.06-.12.08-.18s0,0-.06,0,0,0,0-.08.08,0,.09-.09a.34.34,0,0,1,.17-.27.5.5,0,0,0,.07-.08c.08-.06.14-.18.25-.14a.18.18,0,0,0,.2-.14.55.55,0,0,1,.31-.34.49.49,0,0,0,.13-.28s0,0,0,0-.06-.06,0-.13A1.53,1.53,0,0,1,8,.67.4.4,0,0,0,8.09.48.18.18,0,0,0,7.94.55Zm-1,.07A.08.08,0,0,1,7,.71c0,.13-.06.16-.2.18A1.58,1.58,0,0,0,6.86.66.06.06,0,0,1,6.92.62ZM6.73.73s0,0,.06,0,0,0,0,0a.06.06,0,0,1-.06.05S6.73.75,6.73.73Zm-1-.12s0,0,0,0h0S5.78.62,5.77.61Zm.58.25a.06.06,0,0,1,0-.07s0,0,0,0A.52.52,0,0,0,6.47.6a.06.06,0,0,1,.08,0s0,0,0,0,0,.07,0,.08a.37.37,0,0,0-.14.18S6.36.88,6.35.86ZM2.62,7.8s0,0,0,0,0,0,0,0a.07.07,0,0,1,0-.05S2.63,7.78,2.62,7.8Zm3.93,1s0,0,0,0,0,0,0,0,0,0,0,0ZM6,8.67a.49.49,0,0,1,.21-.35A.78.78,0,0,1,6,8.67ZM2.87,6.58s0-.07.08,0,0,0,0,.07a.07.07,0,0,1-.06,0S2.87,6.6,2.87,6.58ZM6.74,7.71v0l-.16.16a0,0,0,0,1,0,0v0a.73.73,0,0,1,.18-.17Zm-6-2.09s-.12,0-.13,0a.17.17,0,0,1,.14,0s0,0,0,0S.73,5.62.72,5.62Zm6.16,2a.1.1,0,0,1,.06-.13C6.94,7.56,6.9,7.59,6.88,7.63ZM3.46,6s0,0,0,0,0,0,0,0,0,0,0,0S3.47,5.93,3.46,6ZM1.62,4.28l0,0c0-.07,0,0,.08-.1S1.66,4.27,1.62,4.28ZM2,4.09s0,0,0,0-.05.11-.09.16a0,0,0,0,1-.05,0s0,0,0-.06l.11-.14S2,4.07,2,4.09ZM9.48,6.27c-.06,0-.1.08-.15.11a1,1,0,0,0-.18.13s0,0,0,0,0,0,0,0,0-.07,0-.1,0-.06,0-.06,0,0,0,.05,0,0,0,0a.14.14,0,0,0,.06-.08c.05-.14.16-.18.26-.25s.05,0,.08,0,0,0,0,.06S9.51,6.25,9.48,6.27ZM4.56,4.47c0-.16.08-.27.17-.29s.08,0,.06.08a.37.37,0,0,1,0,.11l0,0C4.64,4.29,4.62,4.48,4.56,4.47ZM2.45,3.64s-.08.13-.15.07h0s0,0,0,0,0,0,0,0,.11-.07.18-.13S2.49,3.6,2.45,3.64ZM10.06,6c-.07.12-.14.22-.26.18s0-.1.25-.27Zm-5-2a.23.23,0,0,1-.1.15l-.13.11a.06.06,0,0,1,0,0A.89.89,0,0,0,5,4S5,4,5,4,5.09,4,5.08,4ZM2.71,3.37c0-.05.07,0,.12-.08S2.76,3.38,2.71,3.37Zm2.78.31s0,0-.07,0,0,0,0,0,0,0,0,0A0,0,0,0,1,5.49,3.68ZM3.21,3c-.08.08-.18.12-.23.24l0,0s0,0,0,0,0-.1,0-.16A.15.15,0,0,1,3,3a2.63,2.63,0,0,1,.41-.27A.58.58,0,0,1,3.21,3Zm.11-.53a.15.15,0,0,1,.11-.09S3.35,2.47,3.32,2.5ZM6,3.28a.09.09,0,0,1,0,.07s0,0,0,0A.07.07,0,0,1,6,3.3S6,3.28,6,3.28ZM3.3,2.53h0s0,0,0,0,0,0,0,0v0s0,0,0,0Zm.18.09s.08-.07.1-.06l0,0s-.07.16-.12.15,0,0,0,0A.13.13,0,0,1,3.48,2.62Zm2.08,1s0,0,0,0,0,0,0-.06,0,0,0,0S5.58,3.54,5.56,3.58Zm.18,0s0,0,0,0,0,0,0,0,0,0,0,0S5.75,3.58,5.74,3.57Zm2.71.86s0,0,0,0v0s0,0,0,0Zm-.62-.58a.06.06,0,0,1,0,.08c-.09,0-.15.14-.26.18s0,0,0-.05.15-.11.2-.21A0,0,0,0,1,7.83,3.85Zm-.12-.09a0,0,0,0,1,0,0,0,0,0,0,1,0,0l0,0A0,0,0,0,1,7.71,3.76ZM3.8,2.46s0,.06,0,0,0,0,0-.07a.07.07,0,0,1,0,0S3.81,2.44,3.8,2.46Zm-1.26,0C2,3,1.37,3.57.81,4.15a2.26,2.26,0,0,1-.29.25c-.05,0-.08,0-.08-.05a.16.16,0,0,1,.07-.12l.69-.71c.28-.28.57-.54.85-.8a3.23,3.23,0,0,1,.4-.35,2.26,2.26,0,0,0,.29-.25c.14-.14.29-.25.43-.38s.55-.44.82-.66c0,0,.06-.06.09-.05S4,1.14,4,1.18l-.45.36a.54.54,0,0,0-.15.18.37.37,0,0,1-.2.17A.25.25,0,0,0,3.05,2,3.51,3.51,0,0,1,2.54,2.48ZM7.9,3s0,0,0,0,0,0,0,0,0,0,0,0S7.91,3,7.9,3Zm-.35-.92s0-.08,0-.08,0,.05,0,.08a.07.07,0,0,1-.05.08S7.55,2.14,7.55,2.11Zm.19.2a.06.06,0,0,1,.09,0,2.48,2.48,0,0,1-.19.26s-.06,0-.11,0C7.53,2.36,7.67,2.38,7.74,2.31Zm0,.5s0,0,0,0,.07,0,.09-.09,0-.15.2-.28c0,.16,0,.16-.15.33l0,0s0,.05,0,.07,0,0,0,0-.09,0-.1.07A.27.27,0,0,1,7.7,3C7.67,3,7.74,2.89,7.75,2.81ZM7.52,3s0,0,0,0,0,0,0,0,0,0,0,0S7.51,3,7.52,3Zm.05.38a.11.11,0,0,1,.11-.11s.11,0,.1,0,0,.08,0,.08a.21.21,0,0,0,.14-.12s0-.09,0-.14a0,0,0,0,1,0,0s0,0,0,0,.07.1,0,.14A.67.67,0,0,1,8,3.42c0-.06,0,0-.07,0s-.16,0-.24.08S7.56,3.43,7.57,3.36ZM3.65,2.26c.07,0,.13-.13.21-.15S3.72,2.21,3.65,2.26Zm.22-.16C3.9,2,3.94,2,4,2A.14.14,0,0,1,3.87,2.1Zm.48-.32L4.09,2C4.18,1.91,4.2,1.69,4.35,1.78Zm.14-.61c-.44.27-.86.55-1.28.83l.3-.27.7-.57a.27.27,0,0,1,.08-.07C4.4,1,4.43,1,4.49,1.17ZM4.27.89s0,0,0,0-.11.12-.18.1A.36.36,0,0,1,4.24.89S4.26.89,4.27.89Zm2.26.54c0-.05,0-.08,0-.12h0S6.56,1.37,6.53,1.43Z"/><path class="cls-1" d="M7.2,8.65c-.09,0-.15.11-.24.11s-.07.06-.1.11,0,.05,0,0,.12-.06.17,0,.16-.09.21-.18a.26.26,0,0,0,.06-.23C7.3,8.57,7.27,8.64,7.2,8.65Z"/><path class="cls-1" d="M9.09,7a.76.76,0,0,1-.32.32s-.08,0-.08.07.06,0,.09,0,0,0,.05,0A1.33,1.33,0,0,0,9.18,7S9.12,6.93,9.09,7Z"/><polygon class="cls-1" points="9.18 6.97 9.18 6.98 9.18 6.98 9.18 6.97 9.18 6.97 9.18 6.97"/><polygon class="cls-1" points="7.63 8.07 7.63 8.07 7.63 8.07 7.63 8.07 7.63 8.07 7.63 8.07"/><path class="cls-1" d="M7.69,8a.81.81,0,0,0-.1.09s-.06,0-.1.05a.18.18,0,0,0,0,.2h0s0,0,0,0,0,0,0-.06.08-.1.13-.12A.2.2,0,0,0,7.69,8Z"/><path class="cls-1" d="M2.14,7.93s0-.09,0-.11-.07,0-.1,0A.94.94,0,0,0,2,8,.06.06,0,0,0,2,8s.05,0,.07,0Z"/><path class="cls-1" d="M5.19,9.49c-.05,0-.06,0-.07.09s0,.06,0,.06.07,0,.08-.08S5.23,9.49,5.19,9.49Z"/><path class="cls-1" d="M8.4,2.16h.09c0-.05.07-.07.06-.14S8.44,2.09,8.4,2.16Z"/><path class="cls-1" d="M8.4,2.85s0,0,0,0,.06,0,.08-.07,0-.05,0-.05A.08.08,0,0,0,8.4,2.85Z"/><path class="cls-1" d="M8.49,7c-.08,0-.08,0-.11.14C8.46,7.1,8.46,7.1,8.49,7Z"/><path class="cls-1" d="M1.06,7.29s0,0,0,0-.05,0-.07,0,0,0,0,0A.07.07,0,0,0,1.06,7.29Z"/><polygon class="cls-1" points="8.85 6.67 8.85 6.66 8.85 6.66 8.85 6.67"/><path class="cls-1" d="M8.73,6.77s0,0,0,0l.09-.1s-.08,0-.11,0A0,0,0,0,0,8.73,6.77Z"/><path class="cls-1" d="M2.41,7s0,0,0,0,0,.1,0,.15l.07-.15S2.43,7,2.41,7Z"/><path class="cls-1" d="M4.94,9.57a.22.22,0,0,0,.13-.12s0,0,0,0S5,9.49,4.94,9.57Z"/><polygon class="cls-1" points="5.04 9.41 5.05 9.4 5.04 9.41 5.04 9.41 5.04 9.41"/><path class="cls-1" d="M7.67,8.13s.1,0,.11-.13-.1.08-.15.07S7.64,8.14,7.67,8.13Z"/><path class="cls-1" d="M4.7,10a.5.5,0,0,0,.1-.18.32.32,0,0,0-.12.17S4.69,10,4.7,10Z"/><path class="cls-1" d="M.46,5.82s0-.08,0-.09,0,0,0,0,0,.08,0,.08S.46,5.84.46,5.82Z"/><path class="cls-1" d="M10.47,4.94s0,0,0,0,0,0,0,0,0,0,0,0S10.48,4.91,10.47,4.94Z"/><path class="cls-1" d="M6.76,9.14a.1.1,0,0,0,0-.11h0S6.75,9.09,6.76,9.14Z"/><path class="cls-1" d="M9,3.93A.08.08,0,0,0,9,4H9S9,4,9,3.93Z"/><path class="cls-1" d="M7.59,8.32a.32.32,0,0,0,.07-.13C7.58,8.21,7.56,8.25,7.59,8.32Z"/><polygon class="cls-1" points="1.06 7.03 1.06 7.04 1.06 7.03 1.06 7.03"/><path class="cls-1" d="M1.06,7C1,7.09,1,7.09,1,7.17A.58.58,0,0,0,1.06,7Z"/><path class="cls-1" d="M10.57,5.61s.06,0,.07-.07a0,0,0,0,0,0,0A.07.07,0,0,0,10.57,5.61Z"/><path class="cls-1" d="M7.65,8.77c.06,0,0-.08.06-.13S7.65,8.71,7.65,8.77Z"/><path class="cls-1" d="M10.26,5.9l.12-.09C10.31,5.8,10.28,5.81,10.26,5.9Z"/><path class="cls-1" d="M8.93,3.87l.08,0a0,0,0,0,0,0,0S9,3.81,8.93,3.87Z"/><path class="cls-1" d="M8.8,4.09a.21.21,0,0,0,0-.14C8.77,4,8.77,4.05,8.8,4.09Z"/><path class="cls-1" d="M8.24,2.58h0s0,0,0,0,0,0,0,0A.07.07,0,0,0,8.24,2.58Z"/><polygon class="cls-1" points="8.28 2.51 8.28 2.5 8.28 2.5 8.28 2.5 8.28 2.51 8.28 2.51"/><path class="cls-1" d="M2.39,8.32a.06.06,0,0,0,0,0l0,0s0,0,0,0S2.38,8.34,2.39,8.32Z"/><path class="cls-1" d="M2,8.28s0,0,0,0a0,0,0,0,0,0,0,.05.05,0,0,0,0,0S2,8.3,2,8.28Z"/><path class="cls-1" d="M8.61,2.47h0l0,0h0S8.61,2.45,8.61,2.47Z"/><path class="cls-1" d="M10.2,5.27s0,0,0,0,0,0,0,0,0,0,0,0S10.21,5.25,10.2,5.27Z"/><path class="cls-1" d="M4.27,8.7s-.06,0-.07.08S4.25,8.73,4.27,8.7Z"/><polygon class="cls-1" points="4.27 8.7 4.27 8.7 4.28 8.7 4.27 8.7 4.27 8.7 4.27 8.7"/><path class="cls-1" d="M8.64,6.83l0,0s0,0,0,0l0,0Z"/><path class="cls-1" d="M2.25,8.37l0,0v0l0,0S2.24,8.37,2.25,8.37Z"/><polygon class="cls-1" points="8.49 2.17 8.49 2.16 8.49 2.16 8.48 2.17 8.49 2.17"/><path class="cls-1" d="M8.49,2.24s0,0,0,0a.05.05,0,0,0,0,0s0,0,0,0S8.47,2.24,8.49,2.24Z"/><path class="cls-1" d="M7,1v.09S7,1,7,1Z"/><polygon class="cls-1" points="6.98 0.97 6.98 0.96 6.98 0.96 6.98 0.96 6.98 0.97"/><polygon class="cls-1" points="6.97 1.06 6.97 1.06 6.97 1.06 6.97 1.06"/><path class="cls-1" d="M10.46,5.83s0,0,0,0l0,0s0,0,0,0S10.46,5.81,10.46,5.83Z"/><path class="cls-1" d="M10.47,5.63s0,0,0,0l0,0s0,0,0,0Z"/><path class="cls-1" d="M8.33,3.1h0a0,0,0,0,1,0,0s0,0,0,0S8.33,3.09,8.33,3.1Z"/><polygon class="cls-1" points="1.06 7.03 1.06 7.03 1.07 7.03 1.06 7.03"/><path class="cls-1" d="M1.12,7s0,0,0,0l0,0h0S1.12,7,1.12,7Z"/><path class="cls-1" d="M.4,5.59h0s0,0,0,0h0S.41,5.59.4,5.59Z"/><polygon class="cls-1" points="10.2 5.67 10.2 5.67 10.2 5.67 10.2 5.67 10.2 5.67 10.2 5.67"/><path class="cls-1" d="M10.24,5.62s0,0,0,0,0,0,0,.06S10.24,5.64,10.24,5.62Z"/><path class="cls-1" d="M7.3,8.33h0v0h0Z"/><path class="cls-2" d="M4.18,4.82a.61.61,0,0,0,.16-.16.53.53,0,0,0,.09-.3.7.7,0,0,0-.36-.57,1,1,0,0,0-.38-.08.7.7,0,0,0-.49.17.81.81,0,0,0-.26.47V4.4l.38.07v0a.46.46,0,0,1,.13-.29.37.37,0,0,1,.48,0A.29.29,0,0,1,4,4.35a.3.3,0,0,1-.12.26.61.61,0,0,1-.3.08H3.52l0,.38.07,0,.19,0A.4.4,0,0,1,4,5.12a.42.42,0,0,1,0,.6.38.38,0,0,1-.3.13.35.35,0,0,1-.26-.1.56.56,0,0,1-.15-.32v0l-.38.06v0A.77.77,0,0,0,3.16,6a.8.8,0,0,0,.55.19A.82.82,0,0,0,4.3,6a.74.74,0,0,0,.24-.55A.66.66,0,0,0,4.42,5,.61.61,0,0,0,4.18,4.82Z"/><path class="cls-2" d="M6.13,4a.61.61,0,0,0-.25-.23.67.67,0,0,0-.35-.08.73.73,0,0,0-.45.14.9.9,0,0,0-.27.42A2.11,2.11,0,0,0,4.72,5a1.57,1.57,0,0,0,.24,1,.68.68,0,0,0,.57.26A.71.71,0,0,0,6,6a.88.88,0,0,0,.26-.41A2.09,2.09,0,0,0,6.34,5a2.79,2.79,0,0,0,0-.57A1.19,1.19,0,0,0,6.13,4Zm-.6,1.83a.36.36,0,0,1-.29-.17A1.47,1.47,0,0,1,5.12,5a1.49,1.49,0,0,1,.13-.76A.32.32,0,0,1,5.53,4a.36.36,0,0,1,.29.17A1.46,1.46,0,0,1,6,5a1.47,1.47,0,0,1-.13.73A.35.35,0,0,1,5.53,5.85Z"/><path class="cls-2" d="M8,4.94a.76.76,0,0,0-.23-.15l-.26-.08V4a.24.24,0,0,1,.13.08.45.45,0,0,1,.1.23v.05l.4-.06v0a.67.67,0,0,0-.24-.45.73.73,0,0,0-.38-.16V3.5H7.2v.14a.81.81,0,0,0-.41.17.67.67,0,0,0-.23.53.73.73,0,0,0,.08.33.57.57,0,0,0,.23.23A1.13,1.13,0,0,0,7.2,5v.81A.43.43,0,0,1,7,5.7a.66.66,0,0,1-.1-.31V5.33l-.38.08v0a.82.82,0,0,0,.12.4.71.71,0,0,0,.25.24,1.21,1.21,0,0,0,.32.1v.29h.27V6.19A.78.78,0,0,0,8,6a.76.76,0,0,0,.2-.53.81.81,0,0,0-.05-.27A.74.74,0,0,0,8,4.94Zm-.2.51a.41.41,0,0,1-.1.27.35.35,0,0,1-.19.12V5.1a.6.6,0,0,1,.22.13A.38.38,0,0,1,7.76,5.45ZM7,4.53A.31.31,0,0,1,7,4.32.32.32,0,0,1,7.2,4v.66A.56.56,0,0,1,7,4.53Z"/></g></g></svg>