<svg xmlns="http://www.w3.org/2000/svg" xmlns:xlink="http://www.w3.org/1999/xlink" viewBox="0 0 59.88 37.13"><defs><style>.cls-1{fill:url(#linear-gradient);}.cls-2{fill:url(#linear-gradient-2);}.cls-3{fill:url(#linear-gradient-3);}.cls-4{fill:url(#linear-gradient-4);}.cls-5{fill:url(#linear-gradient-5);}.cls-6{fill:url(#linear-gradient-6);}.cls-7{fill:url(#linear-gradient-7);}.cls-8{fill:url(#linear-gradient-8);}.cls-9{fill:url(#linear-gradient-9);}.cls-10{fill:url(#linear-gradient-10);}.cls-11{fill:url(#linear-gradient-11);}.cls-12{fill:url(#linear-gradient-12);}.cls-13{fill:url(#linear-gradient-13);}.cls-14{fill:url(#linear-gradient-14);}.cls-15{fill:url(#linear-gradient-15);}.cls-16{fill:url(#linear-gradient-16);}.cls-17{fill:url(#linear-gradient-17);}.cls-18{fill:url(#linear-gradient-18);}</style><linearGradient id="linear-gradient" x1="-321.65" y1="693.28" x2="-321.65" y2="763.41" gradientTransform="translate(823.59 84) rotate(70.89)" gradientUnits="userSpaceOnUse"><stop offset="0" stop-color="#f8f8f8"/><stop offset="0.12" stop-color="#e0e0e0"/><stop offset="0.24" stop-color="#c4c4c4"/><stop offset="0.73" stop-color="#7d7d7d"/><stop offset="1" stop-color="#e3e3e3"/></linearGradient><linearGradient id="linear-gradient-2" x1="-308.65" y1="693.28" x2="-308.65" y2="763.41" xlink:href="#linear-gradient"/><linearGradient id="linear-gradient-3" x1="-308.54" y1="693.28" x2="-308.54" y2="763.41" xlink:href="#linear-gradient"/><linearGradient id="linear-gradient-4" x1="-308.63" y1="693.28" x2="-308.63" y2="763.41" xlink:href="#linear-gradient"/><linearGradient id="linear-gradient-5" x1="-323.19" y1="693.28" x2="-323.19" y2="763.42" xlink:href="#linear-gradient"/><linearGradient id="linear-gradient-6" x1="-308.66" y1="693.28" x2="-308.66" y2="763.41" xlink:href="#linear-gradient"/><linearGradient id="linear-gradient-7" x1="-310.47" y1="693.28" x2="-310.47" y2="763.41" xlink:href="#linear-gradient"/><linearGradient id="linear-gradient-8" x1="-311.08" y1="693.28" x2="-311.08" y2="763.42" xlink:href="#linear-gradient"/><linearGradient id="linear-gradient-9" x1="-311.22" y1="693.28" x2="-311.22" y2="763.42" xlink:href="#linear-gradient"/><linearGradient id="linear-gradient-10" x1="-311.15" y1="693.28" x2="-311.15" y2="763.41" xlink:href="#linear-gradient"/><linearGradient id="linear-gradient-11" x1="-310.52" y1="693.28" x2="-310.52" y2="763.41" xlink:href="#linear-gradient"/><linearGradient id="linear-gradient-12" x1="-311.71" y1="693.28" x2="-311.71" y2="763.41" xlink:href="#linear-gradient"/><linearGradient id="linear-gradient-13" x1="-310.71" y1="693.29" x2="-310.71" y2="763.4" xlink:href="#linear-gradient"/><linearGradient id="linear-gradient-14" x1="-311.15" y1="693.28" x2="-311.15" y2="763.41" xlink:href="#linear-gradient"/><linearGradient id="linear-gradient-15" x1="-311.15" y1="693.28" x2="-311.15" y2="763.42" xlink:href="#linear-gradient"/><linearGradient id="linear-gradient-16" x1="-311.54" y1="693.28" x2="-311.54" y2="763.42" xlink:href="#linear-gradient"/><linearGradient id="linear-gradient-17" x1="-311.3" y1="693.27" x2="-311.3" y2="763.43" xlink:href="#linear-gradient"/><linearGradient id="linear-gradient-18" x1="-311.14" y1="693.27" x2="-311.14" y2="763.43" xlink:href="#linear-gradient"/></defs><g id="Layer_2" data-name="Layer 2"><g id="Ñëîé_1" data-name="Ñëîé 1"><path class="cls-1" d="M53.53,24.83c.69-.32,1.41-.56,2.12-.83a9.55,9.55,0,0,0,2-.92,2.1,2.1,0,0,0,.57-.62c.16-.23.21-.52.44-.71s.07-.21,0-.31a8.08,8.08,0,0,1-.9-1.11c-.27-.35-.53-.72-.83-1s-.55-.44-.81-.68a5,5,0,0,0-1.16-.89.63.63,0,0,1-.31-.28c1.84-.73,3.49-1.79,5.27-2.67a.37.37,0,0,0-.28,0l-.34.12c-.41.12-.81.33-1.25.09a.45.45,0,0,0-.32,0,.6.6,0,0,1-.31.08,1.42,1.42,0,0,0-.79.12,3.49,3.49,0,0,1-1.6.21.4.4,0,0,0-.26,0,1.27,1.27,0,0,1-1.06,0A4.63,4.63,0,0,1,55,15c.17,0,.32.05.32-.2,0-.09.06-.1.14-.09.39.06.59-.21.79-.47a.33.33,0,0,0,0-.41,1.25,1.25,0,0,0-.66-.5c-.11,0-.25-.07-.27-.22a.76.76,0,0,0-.31-.45c-.06,0-.11-.09-.05-.16.24-.28,0-.54-.07-.75a5.69,5.69,0,0,1-.44-1.42c-.06-.42-.15-.76-.59-.92-.13,0-.25-.1-.11-.28s0-.2-.13-.2-.14,0-.2,0-.3-.15-.25-.36a.21.21,0,0,0,0-.19c-.4,0-.48-.14-.35-.53a.9.9,0,0,1,.46-.5c.3-.16.59-.33.9-.48.52-.26,1-.62,1.49-.91a.57.57,0,0,0,0-.94c-.37-.23-.39-.24-.22-.62a.78.78,0,0,0-.2-.93,6.64,6.64,0,0,0-1.1-.88c-.42-.26-.86-.5-1.31-.73-.21-.11-.45-.16-.66-.27a5.63,5.63,0,0,0-1-.45Q49.88.85,48.6.52a3.77,3.77,0,0,0-.88-.15A3.68,3.68,0,0,1,46.49.18,2.73,2.73,0,0,0,45.93,0a2,2,0,0,0-1.07.1,7.84,7.84,0,0,1-1.3.21,2.7,2.7,0,0,0-.63.12,1,1,0,0,1-.43.12A.92.92,0,0,0,42,.75a2.63,2.63,0,0,1-.93.39,5.28,5.28,0,0,0-1.49.52.8.8,0,0,1-.46.13,8.12,8.12,0,0,0-2.09,0,1.77,1.77,0,0,0-.82.2c-.15.11-.28.3-.49.1,0,0-.09,0-.14,0a3.57,3.57,0,0,1-.8.47s-.13.09-.17,0-.12-.12-.19,0a.92.92,0,0,1-.62.41.53.53,0,0,0-.21.11c-.47.35-1,.68-1.42,1-.29.22-.57.16-.89.21a.39.39,0,0,1,.33-.21c.14,0,.21-.17.36-.19s.13-.23.27-.27c0-.07,0-.18-.1-.24s-.08,0-.1.06c-.28.37-.79.31-1.11.6a.11.11,0,0,1-.08,0c-.28-.17-.47.07-.71.14s-.62.5-1.07.37c0,0-.1,0-.14.07a1.11,1.11,0,0,1-.67.27c-.09,0-.2,0-.27.07a1.2,1.2,0,0,1-.53.29.56.56,0,0,0-.35.37,3,3,0,0,1-.16.37s-.11.07-.12,0c0-.25-.15-.08-.24-.06s-.15.24-.33.19a.72.72,0,0,0-.62.15c-.22.15-.4.34-.69.22,0,0-.05,0-.07,0a4.62,4.62,0,0,1-1.12.25c-.11-.17.06-.32,0-.46-.21,0-.38.27-.56.21a.53.53,0,0,0-.51.15c-.12.1-.19.14-.31,0s-.24-.1-.25,0c0,.27-.25.25-.37.32s-.39.38-.64.51c-.4.22-.38.26-.76,0A.43.43,0,0,0,20,7.56a2.64,2.64,0,0,0-.9.49c-.06,0-.1.13-.2.09-.3-.12-.55.06-.81.13s-.24.16-.14.33.1.05.07.13-.51.35-.58.29S17.14,9,17,9.09a.7.7,0,0,1-.36.19,1,1,0,0,0-.31.18c-.15.12-.31.42-.51,0h0c-.32,0-.68,0-.88.27a.29.29,0,0,1-.43.12.45.45,0,0,0-.45,0c-.26.15-.55.23-.8.37s-.31.12-.34.31,0,.14-.12.11-.26.09-.34.21h0c-.09-.05-.19-.11-.22,0a.46.46,0,0,1-.2.36c-.15-.09,0-.28-.22-.39,0,.23-.09.31-.27.41s-.47.16-.52.45c-.18,0-.25.19-.33.32-.44-.09-.18.24-.22.39s0,.1-.05.16-.14-.24-.31-.13-.23.05-.23-.12,0-.21-.16-.12,0,0-.06,0c-.22-.32-.22,0-.26.1a.61.61,0,0,1-.66.42.27.27,0,0,0-.18.08c-.06,0-.07.17-.13.14-.27-.1-.21.09-.29.24s-.17.24-.09.41,0,.1-.09.1a.12.12,0,0,0-.14.14c0,.14-.07.18-.17.18a5.26,5.26,0,0,0-1.18.24.41.41,0,0,0-.32.31.4.4,0,0,1-.27.31,1.33,1.33,0,0,0-.77.72,2.68,2.68,0,0,1-.31.42.59.59,0,0,0-.2.66.19.19,0,0,1-.15.28.73.73,0,0,0-.41.38c0,.09-.09.2-.2.25a9.43,9.43,0,0,0-1.19.69c-.4.25-.84.45-1.23.71a1.74,1.74,0,0,1-.45.27,3.07,3.07,0,0,0-.9.55.14.14,0,0,0-.07.17c0,.07.07.07.13.08a4.84,4.84,0,0,0,1.08,0c.62-.11,1.26-.17,1.89-.22,1.55-.13,3.1-.29,4.64-.57.43-.08.86-.14,1.29-.21a.39.39,0,0,1,.39.17c.1.13,0,.23-.11.31a.81.81,0,0,0-.23.66,2.22,2.22,0,0,1-.34,1.25c-.18.34-.44.63-.62,1a1,1,0,0,0,0,1.14.49.49,0,0,1,.06.27,3.1,3.1,0,0,0,.09.61c.07.3.17.41.49.4a3.45,3.45,0,0,0,.72-.07.65.65,0,0,1,.59.2c.09.08.17.17,0,.31a.86.86,0,0,0-.16.41,1.43,1.43,0,0,1-.24.6,5.84,5.84,0,0,0-1.07,2.3,2.12,2.12,0,0,0,.05,1.09c.14.43.25.88-.26,1.18,0,0-.05.1-.09.13a1,1,0,0,1-.43.3,8.4,8.4,0,0,0-1.29.5c-.31.12-.61.31-.44.75.06.18-.07.3-.23.39s-.17.11-.13.22.12.09.2.1a7.24,7.24,0,0,0,1.47.06c.29,0,.59,0,.89,0s.49.19.46.36a.71.71,0,0,1-.14.29c-.08.1.12.15,0,.28a1.26,1.26,0,0,0-.23,1,.37.37,0,0,1-.14.4,1.48,1.48,0,0,0-.27.4c-.06.08-.12.22-.2.24-.36.08-.45.44-.71.62a.14.14,0,0,0-.06.18.16.16,0,0,0,.18.07c.62-.1,1.25-.06,1.86-.12,1-.1,2-.28,3-.41.59-.08,1.19-.12,1.78-.19.77-.09,1.53-.25,2.29-.39,1-.2,2.11-.39,3.14-.69.59-.17,1.18-.3,1.76-.5a19.9,19.9,0,0,1,2.53-.63c1.51-.32,3-.69,4.51-1.07l2.61-.68a16.69,16.69,0,0,0,2.15-.67,2.62,2.62,0,0,1-1.18.18.28.28,0,0,1,.22-.15c.66-.16,1.28-.44,2-.59a.58.58,0,0,0,.51-.34c0-.09.22-.14.34-.2h.07c0,.23.12.13.16,0a.23.23,0,0,1,.2-.17,3.57,3.57,0,0,0,.52-.14c.09.09,0,.17,0,.24.41,0,.41,0,.63-.36,0,0,.06-.08.09-.08.26,0,.41-.2.61-.3a5.42,5.42,0,0,1,1.23-.42c.24,0,.42-.19.64-.24s.16-.08.1-.18-.13-.07-.21,0a2.3,2.3,0,0,1-1,.38,1.34,1.34,0,0,0-.27.07,6.91,6.91,0,0,1-1.32.4,1.33,1.33,0,0,0-.5.16,1.29,1.29,0,0,1-.49.16c-.07,0-.16.08-.19-.07.26-.14.57-.17.84-.29,0,0,.08,0,.06-.08s-.19,0-.25-.09a9.25,9.25,0,0,1,1-.33c.32-.08.62-.19.93-.29s.64-.22,1-.3.6-.23.91-.32a8.16,8.16,0,0,0,1-.32c.29-.13.62-.19.92-.31a4.15,4.15,0,0,0,.89-.33,5.8,5.8,0,0,0-1.32.33,5.54,5.54,0,0,1-.58.17.12.12,0,0,1-.16-.09c0-.09,0-.1.11-.12l1.4-.43a21.28,21.28,0,0,1,2.1-.65c.07,0,.15-.08.19,0-.17.12-.44.09-.57.4a14,14,0,0,0,1.48-.54.72.72,0,0,0-.4.12.25.25,0,0,1-.37-.15,11.61,11.61,0,0,1,1.6-.46c0,.16-.22.16-.28.33a4,4,0,0,0,.94-.28c.32-.1.65-.2,1-.32l.91-.35a8.37,8.37,0,0,1,1-.33A2.07,2.07,0,0,1,50.1,25c-.6.28-1.16.64-1.78.86a2.32,2.32,0,0,0-.62.29,1.36,1.36,0,0,1-.67.27,2.34,2.34,0,0,0-1,.44,1.68,1.68,0,0,0,1.1-.32.79.79,0,0,1,.38-.14,1.07,1.07,0,0,0,.67-.25c.17-.18.47-.15.68-.3a2.71,2.71,0,0,1,.89-.27c.24.24.46,0,.69,0s.18-.09.28,0c-.06.25,0,.28.13.21.52-.2,1.07-.32,1.6-.49A7.87,7.87,0,0,0,53.53,24.83ZM36.36,2.52a.18.18,0,0,1,.19-.1.35.35,0,0,1,0,.06Zm-18,6.1s0,0-.05,0l.06,0s.06,0,.05,0A.08.08,0,0,1,18.36,8.62Zm.73-.22a.09.09,0,0,1,0-.11.32.32,0,0,1,.26-.14c0,.13-.09.18-.13.24S19.13,8.45,19.09,8.4Zm-5.42,1.92a.23.23,0,0,1,.3-.06A.21.21,0,0,1,13.67,10.32Zm2.92-.86a.08.08,0,0,1,.08.07c0,.07,0,.14-.1.15s-.07,0-.08-.08A.1.1,0,0,1,16.59,9.46Zm-1,.31c.07,0,.14,0,.15.07s0,.07,0,.1a.16.16,0,0,1-.17-.09S15.52,9.78,15.55,9.77Zm-3.09,1.14s.11-.07.15,0,0,.12,0,.12S12.48,11,12.46,10.91Zm-1,.76c0-.08.07-.09.13-.12a.09.09,0,0,1,.13,0c.05.1,0,.1-.09.13S11.46,11.76,11.44,11.67Zm1.91-.23a.32.32,0,0,1-.27,0c-.09,0-.2,0-.23-.1s.06-.15.14-.17a.14.14,0,0,0,.12-.18.31.31,0,0,1,.15-.28s.07.06.08.09,0,.23.17.23.08-.16.1-.24c.09-.3.38-.36.59-.51.05-.05.13,0,.16.07a.11.11,0,0,1-.06.16c-.37.14-.47.44-.47.84A.6.6,0,0,0,13.35,11.44Zm-3.81,2H9.48s0-.06,0-.07.1-.13.19-.11a.1.1,0,0,1,0,.07C9.7,13.41,9.61,13.42,9.54,13.44ZM34.16,30.91c-.12.17-.22,0-.32,0Zm-.63.12s.09,0,.1,0,0,.07-.06.1-.12.05-.14,0S33.48,31,33.53,31Zm-.31.13c-.1.08-.13.24-.29.18s-.07-.06,0-.1S33.09,31.15,33.22,31.16Zm4-2.3c-.11.19-.34.06-.47.18C36.81,28.82,37,28.93,37.18,28.86Zm.65-.29c.28,0,.53-.18.81-.18,0,.11,0,.16-.1.18l-.69.23c-.06,0-.12,0-.14,0s0-.1,0-.15A.08.08,0,0,1,37.83,28.57ZM35,29.4c.36,0,.67-.28,1-.31.11,0,.25-.05.27.06s-.13.19-.24.18a1.54,1.54,0,0,0-1,.28l-.15.07c-.09,0-.17,0-.19-.09s0-.11.1-.14Zm-4.44,1.82a.35.35,0,0,1-.28.09c.05-.11.16-.11.25-.15Zm2.88-1.32.36-.09A.45.45,0,0,1,33.43,29.9Zm20.31-7.71c-.07.13-.15.14-.25,0l.23-.14A.11.11,0,0,1,53.74,22.19Zm-1.63-.48c-.18.14-.18.14-.38,0Zm-6.37,1.78a.07.07,0,0,1-.07.08.24.24,0,0,1-.1-.05c0-.06,0-.07.07-.08A.08.08,0,0,1,45.74,23.49ZM49.27,22l-.34.11C49,21.92,49,21.92,49.27,22Zm-3.86,1.28-.07,0h0a1.76,1.76,0,0,1-.3.1c-.06,0-.13-.06-.09-.07.23-.08,0-.18,0-.26a.25.25,0,0,1,.1-.17,1,1,0,0,0,.24-.26.39.39,0,0,1,.58-.11s.09.07.06.13C45.83,22.87,45.78,23.19,45.41,23.24Zm3-1.5c0,.08,0,.12-.11.14s-.14,0-.17,0a.13.13,0,0,1,.09-.19C48.25,21.63,48.34,21.65,48.36,21.74Zm.89-1.18c-.15-.11,0-.22,0-.33h.07c.06.1.13.2.05.32A.17.17,0,0,1,49.25,20.56Zm-2.16,1.21c0-.14.2-.15.41-.11-.11.15-.27.23-.2.41s-.34.3-.39.28-.07-.06-.07-.09C46.81,22,47,22,47.09,21.77Zm-4.72,1.94c.17-.23.17-.23.45-.13C42.69,23.71,42.54,23.65,42.37,23.71Zm1.38-.26c.07-.16-.1-.4.13-.46a5.2,5.2,0,0,1,.88-.09c-.16.15-.28.1-.38.12s-.21,0-.08.23c0,0,0,0,0,0s0,0,0,0c-.3,0-.1.35-.3.39a.25.25,0,0,1-.12,0A.18.18,0,0,1,43.75,23.45Zm-9.88,3.94s0-.08.07-.07,0,0,.05.05a.07.07,0,0,1-.06.09S33.87,27.43,33.87,27.39Zm-2.76,2.06a.74.74,0,0,1,.09-.56.14.14,0,0,1,.11,0c.07,0,0,0,0,.08s0,.17.07.22a.16.16,0,0,0,.22-.11.23.23,0,0,1,.34-.16c.1,0,.19,0,.2.17s-.06.2-.24.23a1.09,1.09,0,0,0-.65.24C31.2,29.56,31.12,29.55,31.11,29.45Zm3-.94c-.19-.11-.41-.19-.67-.31.18-.11.43-.05.29-.3,0,0,0-.1.08-.11a.64.64,0,0,0,.44-.27.11.11,0,0,1,.17,0c.14.11.29,0,.43,0a.16.16,0,0,1,.21.13c0,.11.07.21-.1.23s-.13.14-.14.22a.82.82,0,0,1-.15.33C34.42,28.66,34.34,28.66,34.06,28.51Zm-.71.76c0-.05,0-.09,0-.12s.08,0,.09,0a.1.1,0,0,1-.07.11S33.36,29.29,33.35,29.27Zm1.71-.7s.09,0,.12.07a.09.09,0,0,1,0,.15c-.07,0-.14,0-.16-.06A.14.14,0,0,1,35.06,28.57Zm-.74.32,0-.05c.1,0,.21-.1.29,0a.06.06,0,0,1,0,.07C34.53,29.05,34.43,29,34.32,28.89Zm-6.38,2.62s0,0,0-.06.1,0,.14,0a.06.06,0,0,1-.06.08C28,31.55,28,31.58,27.94,31.51ZM38.35,28c-.23-.26-.41-.12-.6,0a3.42,3.42,0,0,1-.8.37,1.34,1.34,0,0,1-.35.05,1,1,0,0,0-.5.12,1.4,1.4,0,0,1-.73.16c.22-.22.4-.48.77-.42.14,0,.2,0,.21-.19s-.26.1-.4,0,.11-.24,0-.39,0-.06.09-.08.3-.18.3-.4c0-.06,0-.08.1-.1s.29-.16.22-.39c0-.06.08-.16.12-.24s.15,0,.24,0,.23,0,.33-.12.32-.22.58,0c.07,0,.13.1.22,0s0-.13,0-.21a.71.71,0,0,0-.16-.45c.07-.07.15-.1.2-.07.35.21.74.07,1.11.14,0,0,.13.07.13,0,0-.24.33-.13.37-.37s.16-.39.42-.15l.1.08c.07-.12.05-.28.19-.36s.1.26.25.34a.67.67,0,0,1,.78-.33.21.21,0,0,0,.29-.14.38.38,0,0,1,.13-.15c.1-.07.13-.27.27-.2s0,.2,0,.3,0,.15.13.14a.67.67,0,0,0,.19,0c.28-.05.46-.31.79-.29s.55-.2.86-.18c.1,0,.2-.09.29-.14a3.5,3.5,0,0,1,1.51-.53c-.19.37-.19.37.33.5a.7.7,0,0,0,0-.35.46.46,0,0,1,.46-.55,2.67,2.67,0,0,0,.85-.23c.29-.09.59-.11.86-.22.09,0,.2-.06.25.05s0,.17-.14.21-.19.2-.17.25c.11.29-.11.31-.28.36a.71.71,0,0,0-.5.38c0,.05,0,.09,0,.15s.09,0,.14,0a2.43,2.43,0,0,0,.37-.16,1.64,1.64,0,0,1,.81-.17.19.19,0,0,1-.16.19,2.3,2.3,0,0,0-.74.24c-.23.07-.35.25-.55.33l-1.24.51c-.2.08-.41,0-.62.1a2.65,2.65,0,0,0-.84.47,3.46,3.46,0,0,1-.46.32.52.52,0,0,1-.36.05,1.47,1.47,0,0,0-1.18.14c-.1.05-.22.1-.26.19-.23.43-.68.46-1.06.59a10.3,10.3,0,0,0-1.19.29s0,0-.07,0,0-.07,0-.11.17-.07.25-.17-.24-.22-.16-.41,0-.1-.08-.09-.13,0-.12.12.05.1.05.16a.19.19,0,0,1-.15.21c-.2,0-.36.19-.56.23s-.29.12-.2.32.06.1,0,.13a.21.21,0,0,1-.15,0c-.26-.17-.26-.17-.4.1S38.48,28.1,38.35,28Zm-8.21,3c.15-.13.25-.18.39-.09A.53.53,0,0,1,30.14,31Zm2.15-.7s.05-.05.09-.05.13,0,.17,0a.23.23,0,0,1,0,0,.21.21,0,0,1-.19,0S32.3,30.28,32.29,30.27Zm-4.11,1.52s0,.06,0,.08a.19.19,0,0,1-.19,0s0-.05,0-.07A.17.17,0,0,1,28.18,31.79ZM24.1,33.21a14.12,14.12,0,0,1,3-.86l0,.13Zm.2.18.48-.19C24.69,33.45,24.51,33.44,24.3,33.39Zm3.17-1a.63.63,0,0,1,.8-.18Zm3.76-1a3.15,3.15,0,0,1-1.18.27A3.34,3.34,0,0,1,31.23,31.38ZM26.39,33A5,5,0,0,1,28,32.63,8.61,8.61,0,0,1,26.39,33Zm6-2.22a1,1,0,0,0,.59,0c.54-.14,1.05-.39,1.6-.48a.2.2,0,0,1,.18,0,.45.45,0,0,1-.31.21l-2.85.82c-.05,0-.11,0-.14,0s.14,0,.2-.08.25-.15,0-.22a.08.08,0,0,1,0-.16A2,2,0,0,1,32.42,30.77Zm7-2.63c-.13.12-.26.15-.31.27s-.09.06-.14,0-.09-.07-.08-.13,0-.09.1-.1Zm7.32-2.34a.21.21,0,0,1,.21-.08s0,.05,0,.07A.3.3,0,0,1,46.71,25.8Z"/><path class="cls-2" d="M40.63,28.63s0-.08,0-.11-.06,0-.07,0c-.22.19-.58.11-.75.39l.67-.16A.21.21,0,0,0,40.63,28.63Z"/><path class="cls-3" d="M45.71,26.89l-.59.2A.72.72,0,0,0,45.71,26.89Z"/><path class="cls-4" d="M41.57,28.24a.54.54,0,0,0-.38.14C41.46,28.38,41.46,28.38,41.57,28.24Z"/><path class="cls-5" d="M53.44,8.71c0,.09.12.08.2.08a.09.09,0,0,0,0-.13.12.12,0,0,0-.17-.06S53.41,8.64,53.44,8.71Z"/><path class="cls-6" d="M39.46,29a.08.08,0,0,0-.1,0s-.1.06-.09.12.07,0,.12,0S39.5,29,39.46,29Z"/><path class="cls-7" d="M45.91,24.72c-.13.26-.3.06-.43.11a.33.33,0,0,0-.26.35s.06,0,.08,0a14.12,14.12,0,0,0,1.56-.63c.07,0,.12-.07.09-.15s-.09-.09-.16-.08-.32,0-.46.14S46,24.63,45.91,24.72Z"/><path class="cls-8" d="M48.28,23.14a.46.46,0,0,1-.51.25c.2.29.42.17.63.12,0,0,0,0,.05-.06Z"/><path class="cls-9" d="M42.05,25.33l-.17,0c-.09,0-.18.06-.17.13s.13.13.23.08A.18.18,0,0,0,42.05,25.33Z"/><path class="cls-10" d="M44.34,24.66a.13.13,0,0,0-.18-.1c-.06,0-.14.06-.11.14a.17.17,0,0,0,.18.12A.15.15,0,0,0,44.34,24.66Z"/><path class="cls-11" d="M37,27.86c0-.06-.07-.11-.11-.09a.2.2,0,0,0-.13.21s.06,0,.1,0S37,28,37,27.86Z"/><path class="cls-12" d="M38.88,26a.15.15,0,0,0-.16-.08.09.09,0,0,0-.09.11c0,.11.11.09.18.08S38.92,26,38.88,26Z"/><path class="cls-13" d="M39.86,26.78a.21.21,0,0,0,.13-.22s-.06,0-.09,0a.14.14,0,0,0-.12.18A.07.07,0,0,0,39.86,26.78Z"/><path class="cls-14" d="M46.94,23.76c0-.05-.06-.1-.1-.08a.15.15,0,0,0-.08.16s.06,0,.08,0S47,23.82,46.94,23.76Z"/><path class="cls-15" d="M43.9,24.79c0-.06-.09,0-.14,0s-.08,0-.1,0,0,0,0,0,.1.09.18,0A.08.08,0,0,0,43.9,24.79Z"/><path class="cls-16" d="M41.85,25.08a.12.12,0,0,0-.1,0,.06.06,0,0,0-.06.07.1.1,0,0,0,.13.05S41.88,25.12,41.85,25.08Z"/><path class="cls-17" d="M47.25,23.43s0,0,0,.05l.07,0s0,0,0-.06S47.27,23.42,47.25,23.43Z"/><path class="cls-18" d="M44.52,24.64s.06,0,0-.08l-.06,0,0,.05S44.51,24.64,44.52,24.64Z"/></g></g></svg>